<?xml version="1.0" encoding="utf-8"?>
<!-- Generator: Adobe Illustrator 25.3.1, SVG Export Plug-In . SVG Version: 6.00 Build 0)  -->
<svg version="1.1" id="Layer_1" xmlns="http://www.w3.org/2000/svg" xmlns:xlink="http://www.w3.org/1999/xlink" x="0px" y="0px"
	 viewBox="0 0 384 126.2" style="enable-background:new 0 0 384 126.2;" xml:space="preserve">
<style type="text/css">
	.st0{fill:#FFFFFF;}
	.st1{fill:#6F6F6E;}
	.st2{fill:#E74A20;}
	.st3{fill:#E84921;}
</style>
<g>
	<path class="st0" d="M55.8,125.5c-4,0-7.1-1.2-9.3-3.6c-2.2-2.4-3.3-5.7-3.3-10.1c0-4.3,1.1-7.7,3.3-10.1c2.2-2.4,5.4-3.6,9.4-3.6
		c2.3,0,5,0.4,8.1,1.1v3.5c-3.5-1.2-6.3-1.8-8.2-1.8c-2.8,0-5,1-6.5,2.9c-1.5,1.9-2.3,4.6-2.3,8.1c0,3.3,0.8,5.9,2.5,7.8
		c1.6,1.9,3.9,2.9,6.7,2.9c2.4,0,5-0.8,7.8-2.3v3.2C61.6,124.9,58.8,125.5,55.8,125.5"/>
	<polygon class="st0" points="69.4,124.9 69.4,98.9 83.8,98.9 83.8,101.7 73.1,101.7 73.1,110 82.1,110 82.1,112.7 73.1,112.7 
		73.1,122.1 84.6,122.1 84.6,124.9 	"/>
	<polygon class="st0" points="88.8,124.9 88.8,98.9 92.4,98.9 92.4,122.1 104,122.1 104,124.9 	"/>
	<polygon class="st0" points="107.8,124.9 107.8,98.9 111.4,98.9 111.4,122.1 123,122.1 123,124.9 	"/>
	<polygon class="st0" points="126.8,124.9 126.8,98.9 141.2,98.9 141.2,101.7 130.4,101.7 130.4,110 139.4,110 139.4,112.7 
		130.4,112.7 130.4,122.1 141.9,122.1 141.9,124.9 	"/>
	<polygon class="st0" points="146.1,124.9 146.1,98.9 149.7,98.9 162.7,119 162.7,98.9 165.8,98.9 165.8,124.9 162.2,124.9 
		149.3,104.8 149.3,124.9 	"/>
	<path class="st0" d="M183.5,125.5c-4,0-7.1-1.2-9.3-3.6c-2.2-2.4-3.3-5.7-3.3-10.1c0-4.3,1.1-7.7,3.3-10.1c2.2-2.4,5.4-3.6,9.4-3.6
		c2.3,0,5,0.4,8.1,1.1v3.5c-3.5-1.2-6.3-1.8-8.2-1.8c-2.8,0-5,1-6.5,2.9c-1.5,1.9-2.3,4.6-2.3,8.1c0,3.3,0.8,5.9,2.5,7.8
		c1.6,1.9,3.9,2.9,6.7,2.9c2.4,0,5.1-0.8,7.8-2.3v3.2C189.3,124.9,186.5,125.5,183.5,125.5"/>
	<polygon class="st0" points="197.1,124.9 197.1,98.9 211.5,98.9 211.5,101.7 200.8,101.7 200.8,110 209.8,110 209.8,112.7 
		200.8,112.7 200.8,122.1 212.3,122.1 212.3,124.9 	"/>
	<polygon class="st0" points="227.8,124.9 227.8,98.9 231.4,98.9 231.4,122.1 243,122.1 243,124.9 	"/>
	<path class="st0" d="M257.1,125.5c-3.6,0-6.5-1.2-8.6-3.7c-2.2-2.5-3.3-5.8-3.3-9.9c0-4.1,1.1-7.4,3.3-9.9c2.2-2.5,5.1-3.7,8.8-3.7
		c3.6,0,6.6,1.2,8.8,3.7c2.2,2.5,3.3,5.8,3.3,9.9c0,4.2-1.1,7.5-3.3,10C263.9,124.3,260.9,125.5,257.1,125.5 M257.2,122.8
		c2.6,0,4.7-1,6.1-2.9c1.4-1.9,2.2-4.6,2.2-8.1c0-3.4-0.7-6-2.2-7.9c-1.4-1.9-3.4-2.9-6-2.9c-2.6,0-4.6,1-6,2.9
		c-1.4,1.9-2.2,4.6-2.2,8c0,3.4,0.7,6.1,2.1,8C252.7,121.8,254.7,122.8,257.2,122.8"/>
	<rect x="326" y="98.9" class="st0" width="3.7" height="26"/>
	<polygon class="st0" points="336.3,124.9 336.3,98.9 339.9,98.9 352.8,119 352.8,98.9 356,98.9 356,124.9 352.4,124.9 339.4,104.8 
		339.4,124.9 	"/>
	<path class="st0" d="M378.4,113.7h-4.5v3.1h4.5v5.4c-1.4,0.4-2.7,0.7-4,0.7c-3,0-5.3-1-6.9-2.9c-1.6-1.9-2.5-4.6-2.5-8
		c0-3.5,0.8-6.2,2.3-8.1c1.5-1.9,3.7-2.9,6.5-2.9c1.9,0,4.6,0.6,8.2,1.8v-3.4c-2.8-0.8-5.6-1.2-8.2-1.2c-4,0-7.1,1.2-9.3,3.6
		s-3.3,5.8-3.3,10.1c0,4.4,1.1,7.8,3.3,10.2c2.2,2.4,5.3,3.5,9.4,3.5c2.3,0,5-0.5,8.2-1.4v-7.5v-3.1
		C382,113.7,378.4,113.7,378.4,113.7z"/>
	<path class="st0" d="M316,113.7h-4.5v3.1h4.5v5.4c-1.4,0.4-2.7,0.7-4,0.7c-3,0-5.3-1-6.9-2.9c-1.6-1.9-2.5-4.6-2.5-8
		c0-3.5,0.8-6.2,2.3-8.1c1.5-1.9,3.7-2.9,6.5-2.9c1.9,0,4.6,0.6,8.2,1.8v-3.4c-2.8-0.8-5.6-1.2-8.2-1.2c-4,0-7.1,1.2-9.3,3.6
		c-2.2,2.4-3.3,5.8-3.3,10.1c0,4.4,1.1,7.8,3.3,10.2c2.2,2.4,5.3,3.5,9.4,3.5c2.3,0,5-0.5,8.2-1.4v-7.5v-3.1
		C319.6,113.7,316,113.7,316,113.7z"/>
	<path class="st0" d="M290.2,113.7h-4.5v3.1h4.5v5.4c-1.4,0.4-2.7,0.7-4,0.7c-3,0-5.3-1-6.9-2.9c-1.6-1.9-2.5-4.6-2.5-8
		c0-3.5,0.8-6.2,2.3-8.1c1.5-1.9,3.7-2.9,6.5-2.9c1.9,0,4.6,0.6,8.2,1.8v-3.4c-2.8-0.8-5.6-1.2-8.2-1.2c-4,0-7.1,1.2-9.3,3.6
		s-3.3,5.8-3.3,10.1c0,4.4,1.1,7.8,3.3,10.2c2.2,2.4,5.3,3.5,9.4,3.5c2.3,0,5-0.5,8.2-1.4v-7.5v-3.1
		C293.8,113.7,290.2,113.7,290.2,113.7z"/>
	<polygon class="st1" points="163.3,86.6 130.9,86.7 98.5,44.5 131.1,2.7 163.4,2.7 129.9,44.7 	"/>
	<polygon class="st2" points="65,2.7 97.4,2.7 129.9,44.8 97.3,86.6 65.1,86.7 98.5,44.6 	"/>
	<polygon class="st0" points="131.1,2.7 163.4,2.7 129.9,44.8 163.3,86.6 130.9,86.7 98.5,44.7 	"/>
	<polygon class="st3" points="65,2.7 97.4,2.7 129.9,44.8 97.3,86.6 65.1,86.7 98.5,44.6 	"/>
	<polygon class="st0" points="170.2,86.6 170.2,2.7 186,2.7 186,74.7 220.1,74.7 220.1,86.6 	"/>
	<path class="st0" d="M265.6,88.7c-11.7,0-21.1-4-28.2-12c-7-8-10.6-18.7-10.6-32c0-13.5,3.5-24.2,10.6-32.2
		c7.1-7.9,16.6-11.9,28.6-11.9c12,0,21.5,4,28.6,11.9c7.1,7.9,10.6,18.6,10.6,32c0,13.7-3.5,24.5-10.6,32.4
		C287.6,84.8,277.9,88.7,265.6,88.7 M265.9,77.2c6.9,0,12.4-2.9,16.4-8.8c4-5.9,6-13.8,6-23.9c0-9.8-2-17.6-6.1-23.5
		c-4-5.9-9.4-8.8-16-8.8c-6.7,0-12.1,2.9-16.1,8.8c-4,5.9-6,13.8-6,23.6c0,9.8,2,17.7,6,23.6C254,74.2,259.3,77.2,265.9,77.2"/>
	<path class="st0" d="M364.2,48.5h-12.2v12.8h12.2v14.8c-2.5,0.6-4.8,0.9-6.7,0.9c-8.6,0-15.4-2.9-20.3-8.6
		c-4.9-5.7-7.4-13.6-7.4-23.7c0-10.4,2.3-18.4,6.9-24.1c4.6-5.7,11.1-8.5,19.5-8.5c6.4,0,14.5,1.8,24.5,5.4V3.8
		c-8.6-2.2-17.2-3.2-25.9-3.2c-13.6,0-24.1,3.8-31.5,11.4c-7.4,7.6-11.1,18.5-11.1,32.6c0,14.2,3.7,25.1,11.1,32.8
		c7.4,7.6,17.9,11.4,31.6,11.4c7.2,0,15.8-1.4,25.8-4.1V61.3V48.5H364.2z"/>
	<polygon class="st3" points="2.3,2.7 54.6,2.7 54.6,14.2 19.7,14.2 19.7,37.6 48.4,37.6 48.4,48.8 19.8,48.9 19.8,74.7 57.3,74.7 
		57.3,86.6 2.4,86.6 	"/>
	<polygon class="st0" points="2.4,124.9 2.4,98.9 16.8,98.9 16.8,101.7 6,101.7 6,110 15,110 15,112.7 6,112.7 6,122.1 17.5,122.1 
		17.5,124.9 	"/>
	<polygon class="st0" points="18.7,124.9 27.2,111.8 19.1,98.9 23.4,98.9 29.6,108.7 36.1,98.9 39.6,98.9 31.3,111.5 39.8,124.9 
		35.4,124.9 28.9,114.6 22.1,124.9 	"/>
</g>
</svg>
