<svg width="264" height="77" viewBox="0 0 264 77" fill="none" xmlns="http://www.w3.org/2000/svg">
<line x1="114.764" y1="13.9238" x2="114.764" y2="72.7137" stroke="white" stroke-width="0.5"/>
<path d="M132.339 44V17.0909H138.028V28.1935H149.577V17.0909H155.254V44H149.577V32.8842H138.028V44H132.339ZM165.634 17.0909V44H159.944V17.0909H165.634ZM170.314 17.0909H177.331L184.741 35.1705H185.057L192.467 17.0909H199.483V44H193.965V26.4854H193.742L186.778 43.8686H183.02L176.056 26.4197H175.833V44H170.314V17.0909ZM204.171 17.0909H211.187L218.598 35.1705H218.913L226.324 17.0909H233.34V44H227.821V26.4854H227.598L220.634 43.8686H216.876L209.913 26.4197H209.689V44H204.171V17.0909ZM242.665 44H236.569L245.858 17.0909H253.19L262.466 44H256.37L249.629 23.2401H249.419L242.665 44ZM242.284 33.4229H256.685V37.864H242.284V33.4229Z" fill="white"/>
<path d="M131.351 71.4927V56.9472H140.982V59.4827H134.426V62.9486H140.343V65.4842H134.426V71.4927H131.351ZM147.122 71.7057C146.018 71.7057 145.064 71.4714 144.259 71.0026C143.459 70.5291 142.841 69.871 142.406 69.0282C141.97 68.1806 141.752 67.1982 141.752 66.0807C141.752 64.9538 141.97 63.969 142.406 63.1262C142.841 62.2787 143.459 61.6205 144.259 61.1518C145.064 60.6783 146.018 60.4415 147.122 60.4415C148.225 60.4415 149.177 60.6783 149.977 61.1518C150.782 61.6205 151.402 62.2787 151.838 63.1262C152.273 63.969 152.491 64.9538 152.491 66.0807C152.491 67.1982 152.273 68.1806 151.838 69.0282C151.402 69.871 150.782 70.5291 149.977 71.0026C149.177 71.4714 148.225 71.7057 147.122 71.7057ZM147.136 69.362C147.638 69.362 148.057 69.2199 148.393 68.9359C148.729 68.647 148.983 68.254 149.153 67.7569C149.328 67.2597 149.416 66.6939 149.416 66.0594C149.416 65.425 149.328 64.8592 149.153 64.362C148.983 63.8648 148.729 63.4718 148.393 63.183C148.057 62.8942 147.638 62.7498 147.136 62.7498C146.629 62.7498 146.203 62.8942 145.858 63.183C145.517 63.4718 145.259 63.8648 145.083 64.362C144.913 64.8592 144.828 65.425 144.828 66.0594C144.828 66.6939 144.913 67.2597 145.083 67.7569C145.259 68.254 145.517 68.647 145.858 68.9359C146.203 69.2199 146.629 69.362 147.136 69.362ZM154.458 71.4927V60.5836H157.392V62.487H157.505C157.704 61.8099 158.038 61.2985 158.507 60.9529C158.975 60.6025 159.515 60.4273 160.126 60.4273C160.277 60.4273 160.441 60.4368 160.616 60.4557C160.791 60.4747 160.945 60.5007 161.078 60.5339V63.2185C160.936 63.1759 160.739 63.138 160.488 63.1049C160.237 63.0717 160.008 63.0552 159.799 63.0552C159.354 63.0552 158.956 63.1522 158.606 63.3464C158.26 63.5358 157.986 63.8009 157.782 64.1418C157.583 64.4827 157.484 64.8757 157.484 65.3208V71.4927H154.458ZM167.328 71.4927V56.9472H176.958V59.4827H170.403V62.9486H176.319V65.4842H170.403V71.4927H167.328ZM178.97 71.4927V60.5836H181.996V71.4927H178.97ZM180.49 59.1773C180.04 59.1773 179.654 59.0282 179.332 58.7299C179.015 58.4269 178.856 58.0646 178.856 57.6432C178.856 57.2266 179.015 56.8691 179.332 56.5708C179.654 56.2678 180.04 56.1163 180.49 56.1163C180.94 56.1163 181.323 56.2678 181.641 56.5708C181.963 56.8691 182.123 57.2266 182.123 57.6432C182.123 58.0646 181.963 58.4269 181.641 58.7299C181.323 59.0282 180.94 59.1773 180.49 59.1773ZM187.445 65.1859V71.4927H184.419V60.5836H187.303V62.5083H187.431C187.672 61.8738 188.077 61.3719 188.645 61.0026C189.213 60.6286 189.902 60.4415 190.712 60.4415C191.469 60.4415 192.13 60.6073 192.693 60.9387C193.257 61.2701 193.695 61.7436 194.007 62.3592C194.32 62.9699 194.476 63.6991 194.476 64.5467V71.4927H191.451V65.0864C191.455 64.4188 191.285 63.898 190.939 63.5239C190.594 63.1451 190.118 62.9557 189.512 62.9557C189.104 62.9557 188.745 63.0433 188.432 63.2185C188.124 63.3937 187.883 63.6494 187.708 63.9856C187.537 64.317 187.45 64.7171 187.445 65.1859ZM199.972 71.6986C199.275 71.6986 198.655 71.5779 198.111 71.3364C197.566 71.0902 197.135 70.728 196.818 70.2498C196.506 69.7668 196.349 69.1655 196.349 68.4458C196.349 67.8397 196.461 67.3307 196.683 66.9188C196.906 66.5069 197.209 66.1754 197.592 65.9245C197.976 65.6735 198.411 65.4842 198.899 65.3563C199.391 65.2285 199.908 65.1385 200.447 65.0864C201.082 65.0201 201.593 64.9586 201.981 64.9018C202.37 64.8402 202.651 64.7503 202.827 64.6319C203.002 64.5135 203.089 64.3383 203.089 64.1063V64.0637C203.089 63.6139 202.947 63.2659 202.663 63.0197C202.384 62.7735 201.986 62.6503 201.47 62.6503C200.926 62.6503 200.492 62.7711 200.17 63.0126C199.848 63.2493 199.635 63.5476 199.531 63.9074L196.733 63.6802C196.875 63.0173 197.154 62.4444 197.571 61.9614C197.988 61.4737 198.525 61.0997 199.183 60.8393C199.846 60.5741 200.613 60.4415 201.484 60.4415C202.09 60.4415 202.67 60.5126 203.224 60.6546C203.783 60.7967 204.278 61.0168 204.709 61.3151C205.144 61.6134 205.488 61.9969 205.739 62.4657C205.989 62.9297 206.115 63.486 206.115 64.1347V71.4927H203.246V69.9799H203.16C202.985 70.3208 202.751 70.6215 202.457 70.8819C202.164 71.1376 201.811 71.3388 201.399 71.4856C200.987 71.6276 200.511 71.6986 199.972 71.6986ZM200.838 69.6106C201.283 69.6106 201.676 69.523 202.017 69.3478C202.358 69.1679 202.625 68.9264 202.82 68.6234C203.014 68.3203 203.111 67.9771 203.111 67.5935V66.4359C203.016 66.4974 202.886 66.5542 202.72 66.6063C202.559 66.6537 202.377 66.6986 202.173 66.7413C201.97 66.7791 201.766 66.8146 201.562 66.8478C201.359 66.8762 201.174 66.9022 201.008 66.9259C200.653 66.978 200.343 67.0609 200.078 67.1745C199.813 67.2881 199.607 67.442 199.46 67.6361C199.313 67.8255 199.24 68.0623 199.24 68.3464C199.24 68.7583 199.389 69.0732 199.687 69.291C199.99 69.504 200.374 69.6106 200.838 69.6106ZM211.488 65.1859V71.4927H208.462V60.5836H211.346V62.5083H211.474C211.715 61.8738 212.12 61.3719 212.688 61.0026C213.256 60.6286 213.945 60.4415 214.755 60.4415C215.512 60.4415 216.173 60.6073 216.736 60.9387C217.3 61.2701 217.738 61.7436 218.05 62.3592C218.363 62.9699 218.519 63.6991 218.519 64.5467V71.4927H215.494V65.0864C215.498 64.4188 215.328 63.898 214.982 63.5239C214.637 63.1451 214.161 62.9557 213.555 62.9557C213.147 62.9557 212.788 63.0433 212.475 63.2185C212.167 63.3937 211.926 63.6494 211.751 63.9856C211.58 64.317 211.493 64.7171 211.488 65.1859ZM225.833 71.7057C224.715 71.7057 223.754 71.469 222.949 70.9955C222.149 70.5173 221.533 69.8544 221.103 69.0069C220.676 68.1593 220.463 67.184 220.463 66.0807C220.463 64.9633 220.679 63.9832 221.11 63.1404C221.545 62.2929 222.163 61.6324 222.963 61.1589C223.764 60.6806 224.715 60.4415 225.818 60.4415C226.77 60.4415 227.603 60.6144 228.318 60.96C229.033 61.3056 229.599 61.791 230.016 62.416C230.433 63.041 230.662 63.7749 230.705 64.6177H227.85C227.769 64.0732 227.556 63.6352 227.21 63.3038C226.87 62.9676 226.422 62.7995 225.868 62.7995C225.399 62.7995 224.99 62.9273 224.639 63.183C224.294 63.434 224.024 63.8009 223.83 64.2839C223.636 64.7668 223.539 65.3516 223.539 66.0381C223.539 66.7342 223.633 67.326 223.823 67.8137C224.017 68.3014 224.289 68.6731 224.639 68.9288C224.99 69.1844 225.399 69.3123 225.868 69.3123C226.214 69.3123 226.524 69.2413 226.799 69.0992C227.078 68.9572 227.308 68.7512 227.487 68.4813C227.672 68.2067 227.793 67.8776 227.85 67.4941H230.705C230.657 68.3274 230.43 69.0613 230.023 69.6958C229.621 70.3255 229.064 70.818 228.354 71.1731C227.644 71.5282 226.803 71.7057 225.833 71.7057ZM232.642 71.4927V60.5836H235.668V71.4927H232.642ZM234.162 59.1773C233.712 59.1773 233.326 59.0282 233.004 58.7299C232.687 58.4269 232.528 58.0646 232.528 57.6432C232.528 57.2266 232.687 56.8691 233.004 56.5708C233.326 56.2678 233.712 56.1163 234.162 56.1163C234.612 56.1163 234.995 56.2678 235.312 56.5708C235.634 56.8691 235.795 57.2266 235.795 57.6432C235.795 58.0646 235.634 58.4269 235.312 58.7299C234.995 59.0282 234.612 59.1773 234.162 59.1773ZM241.117 65.1859V71.4927H238.091V60.5836H240.975V62.5083H241.103C241.344 61.8738 241.749 61.3719 242.317 61.0026C242.885 60.6286 243.574 60.4415 244.384 60.4415C245.141 60.4415 245.802 60.6073 246.365 60.9387C246.929 61.2701 247.367 61.7436 247.679 62.3592C247.992 62.9699 248.148 63.6991 248.148 64.5467V71.4927H245.122V65.0864C245.127 64.4188 244.957 63.898 244.611 63.5239C244.265 63.1451 243.79 62.9557 243.184 62.9557C242.776 62.9557 242.416 63.0433 242.104 63.2185C241.796 63.3937 241.555 63.6494 241.38 63.9856C241.209 64.317 241.121 64.7171 241.117 65.1859ZM255.447 75.8109C254.467 75.8109 253.627 75.6759 252.926 75.406C252.23 75.1409 251.676 74.7787 251.264 74.3194C250.852 73.8601 250.585 73.344 250.462 72.7711L253.26 72.3947C253.345 72.6125 253.48 72.8161 253.665 73.0055C253.849 73.1949 254.093 73.3464 254.396 73.46C254.704 73.5784 255.078 73.6376 255.518 73.6376C256.177 73.6376 256.719 73.4766 257.145 73.1546C257.576 72.8374 257.791 72.3047 257.791 71.5566V69.5609H257.663C257.531 69.8639 257.332 70.1503 257.067 70.4202C256.802 70.6901 256.461 70.9103 256.044 71.0807C255.627 71.2512 255.13 71.3364 254.552 71.3364C253.733 71.3364 252.988 71.147 252.315 70.7682C251.648 70.3847 251.115 69.8 250.717 69.014C250.324 68.2233 250.128 67.2242 250.128 66.0168C250.128 64.781 250.329 63.7488 250.731 62.9202C251.134 62.0916 251.669 61.4714 252.337 61.0594C253.009 60.6475 253.745 60.4415 254.545 60.4415C255.156 60.4415 255.668 60.5457 256.079 60.754C256.491 60.9576 256.823 61.2133 257.074 61.5211C257.329 61.8241 257.526 62.1224 257.663 62.416H257.777V60.5836H260.781V71.5992C260.781 72.5272 260.554 73.3038 260.099 73.9288C259.645 74.5538 259.015 75.0225 258.21 75.335C257.41 75.6522 256.489 75.8109 255.447 75.8109ZM255.511 69.0637C255.999 69.0637 256.411 68.943 256.747 68.7015C257.088 68.4553 257.348 68.1049 257.528 67.6503C257.713 67.1911 257.805 66.6418 257.805 66.0026C257.805 65.3634 257.715 64.8094 257.535 64.3407C257.355 63.8672 257.095 63.5003 256.754 63.2398C256.413 62.9794 255.999 62.8492 255.511 62.8492C255.014 62.8492 254.595 62.9842 254.254 63.254C253.913 63.5192 253.655 63.8885 253.48 64.362C253.305 64.8355 253.217 65.3824 253.217 66.0026C253.217 66.6324 253.305 67.1769 253.48 67.6361C253.66 68.0907 253.918 68.4434 254.254 68.6944C254.595 68.9406 255.014 69.0637 255.511 69.0637Z" fill="#8EA2A2"/>
<circle cx="17.3319" cy="36.1145" r="6.96196" transform="rotate(-15 17.3319 36.1145)" fill="#96FFEE"/>
<circle cx="8.52662" cy="50.8726" r="6.96196" transform="rotate(-15 8.52662 50.8726)" fill="#C0FFF5"/>
<circle cx="26.483" cy="22.4504" r="6.96196" transform="rotate(-15 26.483 22.4504)" fill="#40FFE1"/>
<path d="M60.6047 13.9383C59.7621 14.0988 58.4982 14.4197 57.796 14.6403C55.9101 15.282 52.3993 17.0268 52.4996 17.3076C52.5397 17.468 53.5027 17.5883 55.4688 17.6686C58.6988 17.829 59.7821 18.0897 62.0692 19.273C64.0955 20.3158 65.7807 21.7197 67.3255 23.645C68.7299 25.4098 71.0972 29.2002 71.0972 29.7016C71.0972 30.0626 62.4504 44.6225 61.9488 45.1239C61.668 45.3846 61.6078 45.3645 61.2667 44.9634C61.0661 44.7228 59.8022 42.6972 58.438 40.4511C54.9271 34.6552 54.1848 33.5923 52.3591 31.7873C50.4933 29.9422 48.5072 28.8192 46.4609 28.4381C45.3173 28.2175 45.1568 28.2376 44.6954 28.5986C43.9932 29.12 37.5533 39.7692 37.7138 40.1703C37.7739 40.3307 38.3959 40.6115 39.1582 40.8121C41.4854 41.3936 42.9299 42.236 44.8358 44.1211C45.7787 45.0637 47.0828 46.628 47.7649 47.6308C49.41 50.0775 54.0444 57.8588 54.0444 58.1797C54.0444 58.641 51.5968 62.5718 50.6538 63.6146C48.7881 65.7003 46.0395 66.9839 43.4315 66.9839C38.1752 66.9839 34.0223 62.7924 31.655 55.1514C30.6719 52.0228 30.6318 51.9025 30.2105 51.9827C29.6889 52.083 28.0839 54.9107 27.4419 56.8962C26.9203 58.4404 26.8601 58.9418 26.8802 60.9673C26.9002 62.8926 26.9805 63.5344 27.4219 64.8781C28.8864 69.2902 32.297 72.5792 36.5903 73.7023C38.2755 74.1435 41.1243 74.1636 42.8095 73.7223C43.5318 73.5418 44.8759 73.0204 45.8189 72.5591C48.2664 71.3558 50.8745 68.7086 53.5428 64.7176C54.8067 62.8525 55.6493 61.7695 55.87 61.7695C56.0506 61.7695 56.7126 62.4514 57.3546 63.3138C58.8994 65.3795 62.4303 68.869 64.1757 70.0122C67.0647 71.9174 69.9336 73.1207 73.0833 73.7424C75.1899 74.1435 79.5634 74.1836 81.8304 73.8226C89.8553 72.5391 95.7335 67.1242 97.7197 59.2025C97.9604 58.2399 98.0607 57.0366 98.0607 54.9508C98.0407 52.3838 97.9805 51.8423 97.499 50.258C96.8771 48.2124 95.9341 46.0665 94.8307 44.2615C93.1455 41.4538 80.5866 22.0807 79.764 20.9977C77.4569 17.9694 72.963 15.1416 68.8703 14.1389C67.0246 13.6776 62.5507 13.5773 60.6047 13.9383ZM74.8689 37.2022C75.9522 37.6634 76.4137 38.1648 78.0186 40.6115C80.6869 44.7228 88.1701 56.9363 88.6716 58.0594C90.4371 61.8899 88.5111 66.8635 84.579 68.6284C82.3721 69.6311 79.5032 69.4306 77.3566 68.147C76.0525 67.3649 74.1466 65.3393 72.4414 62.9127C71.2176 61.188 64.6974 50.9599 64.1557 49.897C63.6742 48.9544 63.8146 48.2926 64.9381 46.5077C65.5199 45.5851 66.6634 43.7 67.486 42.3362C69.2715 39.3681 70.3549 38.1046 71.7392 37.4228C72.9228 36.8211 73.8056 36.7609 74.8689 37.2022Z" fill="white"/>
</svg>
