<?xml version="1.0" encoding="utf-8"?>
<!-- Generator: Adobe Illustrator 28.1.0, SVG Export Plug-In . SVG Version: 6.00 Build 0)  -->
<svg version="1.1" id="Layer_1" xmlns="http://www.w3.org/2000/svg" xmlns:xlink="http://www.w3.org/1999/xlink" x="0px" y="0px"
	 viewBox="0 0 533.3 155.8" style="enable-background:new 0 0 533.3 155.8;" xml:space="preserve">
<style type="text/css">
	.st0{fill:#0E8142;}
	.st1{fill:#020202;}
</style>
<g>
	<path class="st0" d="M42.7,132.4c-0.9-0.5-1.8-1-2.7-1.5c-3.9-2.1-7.6-4.7-10.8-7.8c-7-6.7-11.2-14.8-12.8-24.4
		C15,90,16,81.5,19,73.1c2.3-6.5,5.7-12.3,10.1-17.6c7.2-8.6,16.4-13.7,27.3-16c3.3-0.7,6.7-0.7,10.1-0.5c10.8,0.5,21,3.5,31,7.5
		c7.3,2.9,14.5,6,21.8,9c5.4,2.2,10.8,4.5,16.4,6.1c3.7,1.1,7.5,1.7,11.3,1.8c7.7,0.3,15.1-1.2,22.2-4c2.4-0.9,4.7-1.9,6.8-3.5
		c0.4-0.3,0.7-0.7,1.2-0.9c-0.1,0.2-0.2,0.5-0.3,0.7c-2.4,4-5.3,7.4-8.8,10.4c-7.5,6.5-16.1,10.4-25.8,12.1
		c-4.9,0.8-9.8,0.8-14.8,0.2c-7.5-0.9-14.7-2.9-21.8-5.4c-7.6-2.6-15.2-5.4-22.8-8c-4.5-1.6-9.1-2.9-13.8-3.5
		c-7.3-0.9-14.2,0.3-20.6,3.8c-3.3,1.8-6.5,3.9-9.2,6.7c-4.1,4.2-6.7,9.2-7.9,14.9c-0.9,4.2-1,8.5-0.6,12.8c0.9,9,4.1,17.2,8.1,25.2
		c0.9,1.8,1.8,3.7,2.8,5.5c0.4,0.8,1,1.4,1.4,2.1H42.7z"/>
	<path class="st0" d="M39.5,115.8c-1-2.5-2-5.1-2.9-7.6c-1-3.1-1.6-6.3-1.4-9.5c0.3-6.4,2.4-12,6.6-16.8c4.6-5.3,10.6-7.9,17.4-9.2
		c5.7-1,11.4-0.4,16.9,1c6.2,1.6,12,4.1,17.7,6.7c4.3,2,8.5,4.4,13,6c4.2,1.5,8.5,2.5,13,3c7.6,0.8,15.1-0.1,22.3-2.6
		c0.6-0.2,1.2-0.4,1.8-0.7c0.6-0.2,1.1-0.5,1.8-0.6c-0.8,1-1.6,2.1-2.5,3.1c-5.5,6-12.2,9.7-20.1,11.4c-4.4,0.9-8.8,1.1-13.2,0.7
		c-5.8-0.5-11.4-1.8-16.8-3.9c-3.3-1.3-6.5-2.9-9.7-4.3c-5.5-2.4-11.1-4.1-17.1-4.8c-5.8-0.7-11.5,0-16.8,2.8c-5.2,2.8-8,7.3-9.1,13
		c-0.5,2.5-0.6,5-0.6,7.5c0,1.5,0,3,0,4.6C39.7,115.8,39.6,115.8,39.5,115.8"/>
	<path class="st0" d="M47.4,131.4c-0.7-1.4-1.4-2.7-2-4.1c-2.6-6.3-2.3-12.3,1.6-18c2.7-3.9,6.6-6.1,11.1-7.3
		c3.8-1,7.6-0.9,11.4-0.2c5.9,1,11.4,3.3,16.8,5.5c3.9,1.6,7.9,2.6,12.2,2.9c6.3,0.4,12.3-0.8,17.9-3.7c0.1,0,0.1,0,0.3,0
		c-0.7,0.9-1.4,1.9-2.1,2.8c-4.3,5-9.9,7.8-16.5,8.6c-6.8,0.8-13.4-0.4-19.7-2.9c-3.3-1.3-6.7-2.4-10.3-3c-4.6-0.7-9.1-0.8-13.4,1.2
		c-4.4,2-6.9,5.4-7.3,10.3c-0.2,2.3,0,4.7,0.1,7.1c0,0.2,0,0.4,0,0.6C47.5,131.3,47.4,131.4,47.4,131.4"/>
	<path class="st0" d="M385.6,59.5c0.3-0.7,0.7-1.5,1.1-2.3c0.1-0.1,0.2-0.3,0.3-0.3c1.5-0.4,3-0.7,4.5-0.5c2,0.3,2.4,1.9,1.8,3.3
		c-0.4,0.9-1,1.8-1.6,2.7c-0.1,0.2-0.2,0.4-0.4,0.6H404c-0.1-0.2-0.1-0.4-0.2-0.6c-0.2-0.4-0.3-0.8-0.5-1.2
		c-0.7-1.6-0.7-1.8,0.7-3.1c0.7,1.4,1.3,2.8,2,4.2c0.3,0.6,0.6,0.8,1.2,0.8c1-0.1,2.1,0,3.3,0c-0.4-0.9-0.7-1.7-1.1-2.5
		c-0.3-0.6-0.3-1,0.2-1.4c0.3-0.3,0.5-0.7,0.8-1.1c0.6,1.3,1.2,2.4,1.7,3.6c0.4,1.1,1,1.6,2.2,1.4c0.3-0.1,0.7,0,1.1,0
		c0-1-0.3-1.9-0.8-2.7c-0.2-0.4-0.2-0.6,0.1-0.9c0.4-0.5,0.7-1,1.1-1.5c0.7,0.7,1.1,1.5,1.2,2.4c0.1,0.9,0,1.8,0,2.7h7.6
		c-0.1-1.1-0.1-2.2-0.2-3.2c-0.2-1.9-0.3-3.8-0.5-5.7c0-0.4-0.1-0.7-0.5-0.9c-0.2-0.1-0.3-0.6-0.2-0.8c0.4-0.7,0.8-1.4,1.2-2.1
		c0.5,1.4,1.9,1.3,2.9,2.1c-0.5,0.6-0.4,1.6-1.4,2.1c0,0.7,0.1,1.6,0.1,2.5c0.1,1.4,0.3,2.8,0.3,4.2c-0.1,1.1-0.4,2.3-0.8,3.3
		c-0.4,1.4-0.1,1.1-1.6,1.1c-1.9,0-3.9,0-5.8,0c-0.8,0-1.6,0.2-1.9-0.9c-0.1,0-0.2,0-0.2,0c-0.2,0.8-0.8,0.9-1.5,0.8
		c-0.7-0.1-1.4,0-2.1,0c-0.5,0-0.9-0.1-1-0.6c0-0.1-0.1-0.2-0.2-0.3c-0.1,0-0.1,0-0.1,0c-0.4,0.8-1,1-1.9,0.9c-1-0.1-2.1,0-3.2,0
		c-0.5,0-0.9-0.1-1-0.7c0-0.1-0.1-0.2-0.1-0.3c-0.1,0-0.2,0-0.2,0.1c-0.4,0.9-1.2,0.8-2.1,0.8c-3.7,0-7.5,0-11.2,0
		c-0.7,0-1.6,0.3-1.8-1.1c-0.5,1.2-1.4,1.1-2.3,1.1c-2.6,0-5.1,0-7.7,0c-0.5,0-0.7,0.1-0.8,0.6c-0.4,1.5-1.1,2.9-2.1,4.1
		c-1.1,1.3-2.1,1.4-3.3,0.3c-0.6-0.5-1.1-1.2-1.6-1.8c1.2,0.3,2.4,0.4,3.5-0.3c1.1-0.6,1.8-1.6,2.3-2.9c-1,0-1.8,0-2.7,0
		c-1.5,0.1-2.8-0.9-2.4-2.9c0.3-1.6,1.1-3,2.2-4.1c0.8-0.8,1.7-0.9,2.6,0c1.1,1.1,1.6,2.5,1.9,4.1c0,0.1,0,0.2,0.1,0.3h9.6
		c-0.1-0.9-0.4-1.7-1-2.2C387.1,60.2,386.4,59.9,385.6,59.5 M377.4,62.9c-0.2-0.7-0.3-1.3-0.6-1.8c-0.5-1.1-1.6-1.1-2.2-0.2
		c-0.2,0.3-0.3,0.6-0.4,0.9c-0.1,0.6,0.1,1,0.7,1.1C375.7,63,376.5,62.9,377.4,62.9 M391,60.6c0.3-0.4,0.8-0.8,0.4-1.3
		c-0.4-0.6-1-0.3-1.6-0.2C390.2,59.6,390.6,60,391,60.6"/>
	<path class="st0" d="M262.1,54.4c0.1,2,0.3,4.2,0.4,6.4c0.1,1.7-0.6,3.1-1.1,4.6c0,0.1-0.3,0.3-0.5,0.3c-3,0-6,0-9,0
		c-0.4,0-0.8-0.3-1.4-0.5c-0.3,0.8-1.1,0.5-1.9,0.5c-1.2,0-2.4,0.1-3.6,0c-0.9-0.1-1.4,0.2-1.6,1c-0.1,0.4-0.3,0.7-0.5,1.1
		c-2.1-1.2-4.1-2.3-6.1-3.5c-0.1,0.1-0.1,0.1-0.1,0.1c-0.4,1.2-1.4,1.4-2.5,1.3c-1.3-0.1-2.5,0-3.8,0c-0.5,0-0.7,0.1-0.8,0.6
		c-0.4,1.6-1.2,3-2.3,4.2c-1.1,1.2-2.1,1.2-3.2,0.1c-0.6-0.5-1.1-1.1-1.6-1.8c1.2,0.3,2.4,0.4,3.5-0.3c1.1-0.6,1.8-1.6,2.3-2.9
		c-1,0-1.9,0-2.8,0c-1.8,0-2.6-1.1-2.3-2.9c0.3-1.6,1.1-3,2.1-4.2c0.8-0.9,1.9-0.9,2.7,0c1,1.1,1.5,2.3,1.7,3.8
		c0.1,0.5,0.3,0.7,0.8,0.6c1.8,0,3.6,0,5.4,0c0.5,0,0.7-0.1,0.9-0.6c0.8-2.1,2.2-3.6,4.5-4.2c0.7-0.2,1.6-0.1,2.3-0.1
		c0.5,0,0.8,0.4,0.8,1c0,1.1,0,2.2,0,3.3c0,0.3,0.1,0.5,0.5,0.5c1.9,0,3.7,0,5.6,0c0.1,0,0.2,0,0.3-0.1c0-0.2,0-0.5,0-0.7
		c0-3,0-6.1,0-9.1c0-0.3,0.1-0.7,0.4-1c0.6-0.6,1.2-1.1,1.8-1.7V51c0,3.6,0,7.3,0,10.9c0,0.9,0.1,1,1,1c2.1,0,4.1,0,6.2,0
		c0.2,0,0.3,0,0.6,0c-0.1-0.8-0.1-1.7-0.2-2.5c-0.2-2.2-0.4-4.4-0.6-6.6c0-0.3-0.1-0.6-0.4-0.7c-0.4-0.2-0.4-0.5-0.2-0.9
		c0.4-0.7,0.8-1.3,1.2-2.1c0.4,1.4,1.9,1.3,2.9,2.1C263.1,52.9,263.2,53.9,262.1,54.4 M238.5,62.1c1.4,0.8,2.8,1.6,4.4,2.5
		c0-1.2,0-2.2,0-3.2c0-0.8-0.3-1.2-1.1-1.1C240.4,60.3,239.3,60.9,238.5,62.1 M228.2,62.9c-0.2-0.7-0.3-1.3-0.6-1.8
		c-0.5-1.1-1.5-1.2-2.2-0.2c-0.2,0.3-0.4,0.6-0.4,0.9c-0.2,0.7,0.1,1.1,0.8,1.1C226.5,63,227.3,62.9,228.2,62.9"/>
	<path class="st0" d="M489.7,58c0.7,1.5,1.4,3,2.1,4.5c0.2,0.4,0.4,0.6,0.9,0.5c0.6,0,1.3,0,2,0c0-1.2-0.4-2.2-1-3.1
		c0.5-0.7,1-1.3,1.5-2c1.3,1.5,1.6,3.2,1,5.1h7.7c-0.1-0.7-0.1-1.3-0.1-2c-0.2-2.4-0.4-4.8-0.6-7.1c0-0.2-0.2-0.5-0.4-0.6
		c-0.3-0.3-0.5-0.5-0.2-0.9c0.4-0.7,0.8-1.3,1.2-2c0.5,1.4,1.9,1.3,2.9,2c-0.5,0.6-0.4,1.6-1.4,2.1c0.1,0.9,0.1,2.1,0.2,3.2
		c0.1,1.2,0.2,2.4,0.2,3.6c0,1.5-0.6,2.8-1.1,4.2c0,0.1-0.3,0.2-0.5,0.2c-2.5,0-5.1,0-7.6,0c-0.2,0-0.4-0.2-0.6-0.3
		c-0.2-0.1-0.2-0.4-0.4-0.5c-0.1,0-0.1,0-0.2,0.1c-0.2,0.8-0.8,0.9-1.5,0.8c-0.6-0.1-1.2-0.1-1.8,0c-0.7,0.1-1.3,0-1.4-0.9
		c-0.1,0-0.2,0-0.2,0.1c-0.4,0.9-1.2,0.9-2,0.9c-0.9,0-1.7,0-2.6,0c-0.7,0-1.4,0.1-1.5-1c-0.2,0.1-0.3,0.2-0.4,0.3
		c-0.3,0.7-0.9,0.7-1.5,0.7c-2.9,0-5.8,0-8.8,0c-0.5,0-0.8,0.1-0.9,0.6c-0.4,1.6-1.2,3-2.4,4.2c-1.2,1.1-2.1,1.1-3.3,0
		c-0.5-0.5-1-1.1-1.6-1.8c0.3,0.1,0.4,0.1,0.6,0.1c1.5,0.5,2.9,0.1,4-1c0.7-0.7,1.2-1.6,1.7-2.4c0.1-0.2,0.1-0.6,0-0.8
		c-0.5-1-1-2-1.6-3c0.4-0.5,0.9-1,1.4-1.6c0.7,0.8,1.1,1.7,1.4,2.6c0.1,0.2,0.3,0.4,0.5,0.4c3.2,0,6.5,0,9.7,0c0.1,0,0.2,0,0.4-0.1
		c-0.4-0.9-0.7-1.7-1.1-2.5c-0.3-0.5-0.3-0.9,0.1-1.3c0.3-0.3,0.5-0.7,0.9-1.1c0.1,0.2,0.2,0.4,0.3,0.6c0.6,1.3,1.2,2.6,1.9,3.9
		c0.1,0.2,0.3,0.4,0.4,0.4c1.3,0,2.5,0,3.9,0c-0.4-1-0.8-1.8-1.2-2.7c-0.2-0.4-0.2-0.8,0.1-1.1C489,58.8,489.3,58.4,489.7,58"/>
	<path class="st0" d="M305.9,50.2c0,2.1,0,4.1,0,6.1c0,1.8,0,3.6,0,5.4c0,1.2,0.1,1.3,1.3,1.3c2.6,0,5.2,0,7.9,0h0.7
		c-0.4-1.8-1.3-3.1-3.3-3.3c0.4-0.9,0.8-1.7,1.2-2.5c0.1-0.1,0.2-0.3,0.3-0.3c1.5-0.4,3-0.7,4.6-0.4c1.6,0.3,2.4,1.5,1.8,3.1
		c-0.4,1-1.1,1.9-1.6,2.8c-0.1,0.2-0.2,0.4-0.4,0.6h9.9c-0.1-1.5-0.2-3-0.3-4.5c-0.1-1.5-0.2-2.9-0.4-4.4c0-0.4-0.1-0.7-0.5-0.9
		c-0.3-0.2-0.4-0.5-0.2-0.8c0.4-0.7,0.8-1.3,1.2-2c0.5,1.4,1.9,1.3,2.9,2c-0.4,0.6-0.4,1.6-1.4,2.2c0,0.8,0.1,1.8,0.2,2.8
		c0.1,1.3,0.3,2.6,0.2,3.9c-0.1,1.1-0.4,2.2-0.7,3.2c-0.4,1.3-0.4,1.2-1.7,1.2c-3.1,0-6.1,0-9.2,0c-0.7,0-1.6,0.3-1.8-1
		c-0.5,1.1-1.4,1-2.3,1c-3,0-5.9,0-8.9,0c-0.3,0-0.6,0-0.8-0.1c-0.3-0.1-0.6-0.4-0.7-0.7c-0.1-0.3-0.1-0.7-0.1-1.1
		c0-3.6,0-7.3,0-10.9c0-0.3,0.2-0.6,0.3-0.8C304.6,51.5,305.2,50.9,305.9,50.2 M317.8,60.5c0.5-0.4,0.7-0.9,0.5-1.2
		c-0.2-0.4-0.8-0.5-1.6-0.2C317.1,59.6,317.5,60,317.8,60.5"/>
	<path class="st0" d="M287.1,62.9c-0.1-0.5-0.3-1-0.4-1.5c0-0.2,0-0.5,0.1-0.6c0.4-0.5,0.9-1,1.4-1.5c0.3,1.2,0.7,2.2,0.9,3.2
		c0.1,0.4,0.3,0.6,0.7,0.6c2.1,0,4.2,0,6.3,0c0.2,0,0.4,0,0.6,0c-0.1-0.7-0.1-1.4-0.2-2.1c-0.2-2.3-0.4-4.6-0.6-7
		c0-0.2-0.2-0.5-0.4-0.7c-0.3-0.2-0.4-0.4-0.2-0.8c0.4-0.7,0.8-1.4,1.2-2.2c0.5,1.4,2,1.3,2.9,2.1c-0.3,0.6-0.5,1.2-0.8,1.9
		c-0.1,0.1-0.3,0.1-0.6,0.2c0.2,1.9,0.3,3.7,0.5,5.6c0.1,0.6,0.1,1.2,0.2,1.9c0.1,0.7,0.3,1.2,0.9,1.6c0.8,0.5,1.5,0.9,2.3,1.4
		c-0.5,0.7-0.9,1.4-1.4,2.2c-1.1-0.6-2.1-1.3-3.1-1.9c0,0.1,0,0.1,0,0.2c-0.5,0.1-0.9,0.3-1.4,0.3c-2.4,0-4.8,0-7.2,0
		c-0.6,0-1.2,0.1-1.2-0.7c-0.1,0-0.2,0-0.2,0c-0.4,0.7-1.1,0.8-1.8,0.7c-2.3,0-4.5,0-6.8,0h-0.7c-0.1-0.5-0.2-1-0.4-1.5
		c-0.1,0.1-0.3,0.2-0.3,0.3c-0.3,0.8-0.9,0.9-1.7,0.7c-1.7-0.3-3.4-0.5-5.1-0.8c0.4-1.2,0.8-2.4,1.3-3.6c0.1-0.3,0.5-0.5,0.8-0.7
		c1.1-0.6,2.2-1.2,3.4-1.8c0.3-0.1,0.6-0.3,0.4-0.7c0-0.1,0.1-0.3,0.2-0.4c0.5-0.5,1.1-0.9,1.7-1.4c0.2,1,0.4,2,0.6,2.9
		c0.3,1.3,0.5,2.5,0.8,3.8c0.1,0.3,0.1,0.5,0.5,0.5c2.2,0,4.4,0,6.6,0C286.9,63,287,62.9,287.1,62.9 M276.9,59.4
		c-1.2,0.7-2.3,1.3-3.4,1.9c-0.2,0.1-0.3,0.4-0.5,0.7c1.6,0.2,3,0.4,4.6,0.7C277.4,61.5,277.2,60.5,276.9,59.4"/>
	<path class="st0" d="M447.1,64.1c-0.3,0.4-0.4,0.6-0.7,0.9c-0.1,0.1-0.3,0.3-0.5,0.3c-2-0.3-3.9-0.6-6-0.9c0.4-1.3,0.8-2.5,1.3-3.7
		c0.1-0.2,0.4-0.4,0.7-0.6c1.1-0.6,2.3-1.3,3.5-1.9c0.2-0.1,0.5-0.2,0.3-0.6c0-0.1,0-0.3,0.1-0.4c0.5-0.5,1.1-1,1.7-1.5
		c0.3,1.7,0.7,3.3,1,4.9c0.1,0.6,0.2,1.3,0.4,1.9c0,0.2,0.3,0.4,0.4,0.4c4.3,0,8.6,0,12.9,0c0,0,0.1,0,0.2-0.1
		c-1.6-1.7-3.1-3.4-4.6-5.1c-0.2,0.1-0.3,0.2-0.5,0.4c-0.5-0.4-1-0.8-1.3-1.3c-0.2-0.2-0.2-0.7-0.1-0.9c0.3-0.9,0.8-1.8,1.2-2.7
		c0.1-0.1,0.2-0.3,0.3-0.3c3.2-0.9,6.3-1.8,9.6-2.7c-0.4,0.8-0.7,1.6-1.1,2.3c-0.1,0.2-0.4,0.3-0.6,0.3c-2.1,0.6-4.3,1.3-6.4,1.9
		c-0.2,0.1-0.4,0.1-0.6,0.2c0.5,0.6,1,1.1,1.5,1.7c1.5,1.7,3.1,3.3,4.6,5c0.9,1,0.9,1.1,0.3,2.2c-0.3,0.6-0.5,1.4-1,1.7
		c-0.5,0.3-1.3,0.1-2,0.1c-4.4,0-8.9,0-13.3,0c-0.9,0-0.9,0-1.1-0.9C447.3,64.6,447.2,64.4,447.1,64.1 M442.4,62
		c1.5,0.2,2.9,0.4,4.4,0.7c-0.1-0.6-0.2-1.1-0.3-1.6c-0.1-0.5-0.2-1-0.3-1.5C444.6,60.1,442.6,61.4,442.4,62"/>
	<path class="st0" d="M214.4,57.9c1.3,1.5,1.6,3.1,1,4.9c-0.2,0.8-0.6,1.6-0.8,2.3c-0.1,0.4-0.3,0.5-0.7,0.5c-2.4,0-4.8,0-7.1,0
		c-0.4,0-0.7,0.1-0.8,0.5c-0.4,1-0.9,1.9-1.4,2.9c-0.3,0.6-0.6,1-1.2,1.3c-1.4,0.9-2.8,1.5-4.5,1.8c-2.8,0.4-5-1.3-4.9-4.2
		c0-1.8,0.7-3.5,1.4-5c-0.1,1-0.2,2.1-0.2,3.2c0,2.3,1.5,3.6,3.9,3.3c1.9-0.3,3.5-1.2,4.8-2.7c-0.7-0.7-0.9-0.7-4-1.2
		c0.4-0.8,0.7-1.6,1.1-2.4c0.1-0.1,0.4-0.2,0.6-0.2c3.9,0,7.8,0,11.7,0h0.8c0-1-0.3-1.9-0.8-2.7c-0.2-0.3-0.2-0.5,0-0.8
		C213.6,59,214,58.4,214.4,57.9"/>
	<path class="st0" d="M351.2,55.7c0.5,2.3,0.9,4.5,1.4,6.7c0.1,0.3,0.1,0.5,0.5,0.5c2.3,0,4.5,0,6.8,0c0.1,0,0.2,0,0.2,0
		c0.1-0.9,0-1.2-0.9-3.1c0.5-0.6,0.9-1.3,1.4-1.9c1.1,1.3,1.6,2.7,1.2,4.3c-0.3,1.1-0.7,2.1-1,3.1c-0.1,0.1-0.3,0.3-0.5,0.3
		c-2.9,0-5.8,0-8.8,0c-0.3,0-0.5-0.1-0.5-0.4c-0.1-0.3-0.1-0.7-0.2-1.2c-0.2,0.3-0.4,0.5-0.6,0.7c-0.2,0.4-0.5,0.5-0.9,0.4
		c-1.7-0.3-3.4-0.5-5.2-0.8c-0.1,0-0.2,0-0.5-0.1c0.4-1.2,0.8-2.5,1.3-3.7c0.1-0.2,0.4-0.4,0.6-0.5c1.2-0.7,2.3-1.3,3.5-1.9
		c0.1-0.1,0.4-0.3,0.3-0.4c-0.1-0.4,0.1-0.6,0.4-0.9C350.3,56.5,350.7,56.2,351.2,55.7 M345.9,61.8c0,0.1,0.1,0.2,0.1,0.2
		c1.4,0.2,2.9,0.4,4.4,0.7c-0.2-1.1-0.4-2.1-0.7-3.2C348.5,60.3,347,60.7,345.9,61.8"/>
	<path class="st0" d="M220.3,50.2c0.2,1.1,0.3,2.1,0.5,3.1c0,0.1,0,0.3-0.1,0.3c-0.4,0.4-0.4,0.9-0.3,1.3c0.1,1.7,0.2,3.4,0.2,5.2
		c0,2.2-0.6,4.2-1.9,6c0,0.1-0.1,0.1-0.1,0.3c0-1.3,0-2.4,0-3.5c-0.2-3.2-0.4-6.4-0.5-9.6c0-0.1,0-0.3,0.1-0.4
		C218.8,52,219.5,51.1,220.3,50.2"/>
	<path class="st0" d="M431.5,50.2c0.2,1.1,0.4,2.1,0.5,3.1c0,0.1,0,0.3-0.1,0.4c-0.5,0.4-0.3,0.9-0.3,1.5c0,2.2,0.1,4.3,0.1,6.5
		c0,1.8-0.9,3.3-2,4.7c0-0.4,0.1-0.8,0.1-1.2c-0.1-3.3-0.2-6.6-0.3-9.8c0-0.5-0.1-1-0.1-1.5c-0.1-0.6,0.1-1,0.4-1.4
		C430.4,51.7,430.9,51,431.5,50.2"/>
	<path class="st0" d="M509.1,66.3c0-1.1,0-2.1,0-3.2c-0.2-3.3-0.4-6.5-0.5-9.8c0-0.2,0-0.4,0.1-0.5c0.7-0.8,1.3-1.7,2.1-2.6
		c0.2,1.2,0.3,2.2,0.5,3.2c0,0.1,0,0.1,0,0.2c-0.7,0.6-0.4,1.4-0.3,2.1c0.1,2.4,0.4,4.9-0.2,7.3C510.5,64.2,509.8,65.3,509.1,66.3"
		/>
	<path class="st0" d="M365.9,59.2c0.4-0.7,0.7-1.4,1-2c2.8,1,3.9,3.3,3,6c-0.2,0.7-0.5,1.4-0.8,2c-0.1,0.1-0.3,0.3-0.4,0.3
		c-1.8,0-3.6,0-5.5,0c0.2-0.9,0.4-1.7,0.6-2.5c0-0.1,0.3-0.2,0.5-0.2c1.2,0,2.4,0,3.5,0c0.2,0,0.4,0,0.7,0
		C368.6,61,367.6,59.9,365.9,59.2"/>
	<path class="st0" d="M333.3,66.4c0.3-4,0.3-7.8-0.3-11.6c-0.3-2.2,1-3.2,2.1-4.7c0.2,1.1,0.3,2.1,0.5,3.1c0,0.1,0,0.2,0,0.3
		c-0.6,0.5-0.3,1.2-0.3,1.9c0,2.1,0.1,4.2,0,6.2C335.2,63.4,334.4,64.9,333.3,66.4"/>
	<path class="st0" d="M194,57.8c0.9,0.8,2,0.9,3.1,0.6c0,0.9-0.3,1.2-1.1,1.4c-1,0.2-1.8,0.7-2.6,1.4c0.2-0.5,0.5-1,0.7-1.5
		c-0.1-0.1-0.2-0.1-0.3-0.2c-0.4-0.3-0.6-0.7-0.6-1.1c0-1.3,1.4-2.6,2.7-2.6c0.8,0,1.1,0.3,0.7,1.1c0,0.1-0.1,0.2-0.1,0.3
		C195,56.9,194.6,57.1,194,57.8"/>
	<path class="st0" d="M486.6,54c0.3-0.2,0.7-0.6,1.1-1c0.4,0.3,0.7,0.6,1.1,0.9c0.4-0.3,0.8-0.6,1.2-0.9c0.6,0.5,1.2,1.1,1.8,1.6
		c-0.5,0.4-0.9,0.8-1.4,1.2c-0.4-0.3-0.7-0.7-1.1-1c-0.4,0.3-0.8,0.6-1.2,1C487.6,55.3,487.1,54.7,486.6,54"/>
	<path class="st0" d="M449.2,52.9c-0.5,0.4-0.9,0.8-1.4,1.2c-0.1-0.1-0.2-0.1-0.3-0.2c-0.9-0.8-0.9-0.8-1.8,0
		c-0.1,0.1-0.2,0.1-0.3,0.2c-0.6-0.5-1.1-1.1-1.7-1.6c0.5-0.4,0.9-0.8,1.4-1.2c0.3,0.2,0.5,0.4,0.7,0.6c0.3,0.3,0.5,0.3,0.8,0
		c0.2-0.2,0.5-0.4,0.8-0.7C448,51.8,448.6,52.3,449.2,52.9"/>
	<path class="st0" d="M360.9,70.8c-0.5-0.3-0.8-0.8-1.2-0.8c-0.4,0-0.7,0.5-1.1,0.8c-0.6-0.5-1.1-1-1.8-1.6c0.5-0.4,0.9-0.8,1.4-1.2
		c0.4,0.3,0.7,0.6,1.1,0.9c0.4-0.3,0.8-0.6,1.2-1c0.5,0.6,1,1.2,1.5,1.8C361.8,70.1,361.3,70.5,360.9,70.8"/>
	<path class="st0" d="M276.2,54.1c-0.6-0.5-1.1-1.1-1.7-1.6c0.5-0.4,0.9-0.8,1.4-1.2c0.4,0.3,0.7,0.7,1.1,1c0.4-0.3,0.8-0.6,1.2-1
		c0.6,0.5,1.1,1,1.8,1.6c-0.5,0.4-0.9,0.8-1.3,1.2c-0.1,0-0.1,0-0.2,0c-0.4-0.3-0.7-0.8-1.1-0.8C277,53.2,276.6,53.8,276.2,54.1"/>
	<path class="st0" d="M348.9,54.1c-0.5-0.6-1-1.2-1.4-1.8c0.3-0.3,0.8-0.6,1.2-1c0.1,0,0.2,0.1,0.2,0.1c0.9,0.8,0.9,0.7,1.8,0
		c0.1-0.1,0.4-0.1,0.5,0c0.5,0.4,1,0.9,1.6,1.4c-0.5,0.4-0.9,0.8-1.4,1.2c-0.1-0.1-0.2-0.1-0.3-0.2c-0.9-0.8-0.9-0.8-1.8,0
		C349.2,53.9,349.2,54,348.9,54.1"/>
	<path class="st0" d="M285,69.3c0.2-0.2,0.4-0.3,0.5-0.5c0.8-0.8,0.8-0.7,1.8-0.1c0.1,0.1,0.4,0.1,0.5,0c0.3-0.2,0.6-0.5,0.9-0.7
		c0.6,0.5,1.1,1.1,1.7,1.6c-0.4,0.4-0.9,0.8-1.4,1.2c-0.4-0.3-0.7-0.6-1.1-1c-0.4,0.3-0.7,0.6-1.2,1C286.2,70.3,285.7,69.8,285,69.3
		"/>
	<path class="st0" d="M211.9,54.3c0.5-0.5,1-0.9,1.4-1.3c0.6,0.5,1.1,1.1,1.8,1.7c-0.5,0.4-0.9,0.8-1.4,1.2
		C213.1,55.4,212.5,54.9,211.9,54.3"/>
	<path class="st0" d="M488.8,52.5c-0.3-0.3-0.7-0.6-1-0.9c-0.3-0.2-0.5-0.5-0.8-0.7c0.5-0.4,0.9-0.8,1.4-1.3
		c0.6,0.6,1.2,1.1,1.8,1.7C489.7,51.7,489.3,52.1,488.8,52.5"/>
	<rect x="193.1" y="100.8" class="st0" width="319.1" height="1"/>
	<path class="st0" d="M197.5,88.7c0.1,0.8,0.3,1.4,0.7,1.8c0.6,0.7,1.6,1.1,3.1,1.1c0.9,0,1.6-0.1,2.1-0.3c1-0.4,1.5-1,1.5-2
		c0-0.6-0.3-1-0.8-1.3c-0.5-0.3-1.3-0.6-2.4-0.8l-1.9-0.4c-1.8-0.4-3.1-0.8-3.8-1.3c-1.2-0.8-1.7-2-1.7-3.7c0-1.5,0.6-2.8,1.7-3.8
		c1.1-1,2.8-1.5,5-1.5c1.8,0,3.4,0.5,4.7,1.4c1.3,1,2,2.4,2,4.2h-3.5c-0.1-1-0.5-1.8-1.4-2.2c-0.6-0.3-1.3-0.4-2.1-0.4
		c-0.9,0-1.7,0.2-2.3,0.6c-0.6,0.4-0.8,0.9-0.8,1.6c0,0.6,0.3,1.1,0.8,1.4c0.4,0.2,1.1,0.4,2.3,0.7l3,0.7c1.3,0.3,2.3,0.7,3,1.2
		c1,0.8,1.5,2,1.5,3.5c0,1.6-0.6,2.9-1.8,3.9c-1.2,1-2.9,1.6-5.1,1.6c-2.3,0-4-0.5-5.3-1.5c-1.3-1-1.9-2.4-1.9-4.2H197.5z"/>
	<path class="st0" d="M215.7,76.8h4.1l6.1,17.2H222l-1.1-3.5h-6.3l-1.2,3.5h-3.8L215.7,76.8z M215.5,87.5h4.4l-2.2-6.8L215.5,87.5z"
		/>
	<path class="st0" d="M228.1,76.8h3.6v10.6c0,1.2,0.1,2,0.4,2.6c0.4,1,1.4,1.4,2.8,1.4c1.4,0,2.4-0.5,2.8-1.4
		c0.3-0.5,0.4-1.4,0.4-2.6V76.8h3.6v10.6c0,1.8-0.3,3.2-0.8,4.3c-1.1,1.9-3.1,2.8-6,2.8s-5-0.9-6.1-2.8c-0.6-1-0.8-2.4-0.8-4.3V76.8
		z"/>
	<path class="st0" d="M255.4,77.2c1.2,0.4,2.2,1.1,2.9,2.2c0.6,0.9,1,1.8,1.2,2.8c0.2,1,0.3,1.9,0.3,2.8c0,2.3-0.5,4.2-1.4,5.8
		c-1.2,2.1-3.2,3.2-5.8,3.2h-7.4V76.8h7.4C253.8,76.8,254.7,77,255.4,77.2 M248.8,79.8V91h3.3c1.7,0,2.9-0.8,3.6-2.5
		c0.4-0.9,0.5-2,0.5-3.3c0-1.7-0.3-3.1-0.8-4c-0.5-0.9-1.6-1.4-3.3-1.4H248.8z"/>
	<rect x="262.3" y="76.8" class="st0" width="3.6" height="17.2"/>
	<path class="st0" d="M287.4,82.2c-0.3-1.2-0.9-2-2-2.5c-0.6-0.3-1.2-0.4-2-0.4c-1.4,0-2.5,0.5-3.4,1.6c-0.9,1-1.3,2.6-1.3,4.7
		c0,2.1,0.5,3.6,1.4,4.5c1,0.9,2.1,1.3,3.3,1.3c1.2,0,2.2-0.3,3-1c0.8-0.7,1.2-1.6,1.4-2.7h-4v-2.9h7.2V94h-2.4l-0.4-2.1
		c-0.7,0.8-1.3,1.4-1.9,1.7c-0.9,0.6-2.1,0.9-3.5,0.9c-2.3,0-4.1-0.8-5.6-2.4c-1.5-1.6-2.3-3.8-2.3-6.5c0-2.8,0.8-5,2.3-6.7
		c1.5-1.7,3.6-2.5,6.1-2.5c2.2,0,3.9,0.6,5.3,1.7c1.3,1.1,2.1,2.5,2.3,4.1H287.4z"/>
	<polygon class="st0" points="294.4,76.8 298,76.8 298,90.9 306.6,90.9 306.6,94 294.4,94 	"/>
	<path class="st0" d="M322.2,92.5c-1.3,1.3-3.2,2-5.6,2c-2.5,0-4.3-0.7-5.6-2c-1.7-1.6-2.6-4-2.6-7.1c0-3.1,0.9-5.5,2.6-7.1
		c1.3-1.3,3.2-2,5.6-2c2.5,0,4.3,0.7,5.6,2c1.7,1.6,2.6,3.9,2.6,7.1C324.8,88.5,324,90.8,322.2,92.5 M320,89.9
		c0.8-1,1.3-2.5,1.3-4.5c0-1.9-0.4-3.4-1.3-4.5c-0.8-1.1-2-1.6-3.4-1.6c-1.4,0-2.6,0.5-3.4,1.6s-1.3,2.5-1.3,4.5
		c0,1.9,0.4,3.4,1.3,4.5c0.8,1,2,1.6,3.4,1.6C318,91.5,319.1,90.9,320,89.9"/>
	<path class="st0" d="M340.4,78.7c0.5,0.7,0.8,1.6,0.8,2.6c0,1-0.3,1.9-0.8,2.5c-0.3,0.4-0.7,0.7-1.3,1c0.9,0.3,1.5,0.8,2,1.5
		s0.7,1.5,0.7,2.5c0,1-0.3,1.9-0.8,2.7c-0.3,0.5-0.7,1-1.2,1.4c-0.5,0.4-1.2,0.7-1.9,0.9c-0.7,0.2-1.6,0.2-2.4,0.2h-7.7V76.8h8.3
		C338,76.9,339.5,77.5,340.4,78.7 M331,79.8v3.8h4.2c0.7,0,1.4-0.1,1.8-0.4c0.5-0.3,0.7-0.8,0.7-1.5c0-0.8-0.3-1.3-0.9-1.6
		c-0.5-0.2-1.2-0.3-2-0.3H331z M331,86.4V91h4.2c0.7,0,1.3-0.1,1.7-0.3c0.8-0.4,1.1-1.1,1.1-2.1c0-0.9-0.4-1.5-1.1-1.8
		c-0.4-0.2-1-0.3-1.7-0.3H331z"/>
	<path class="st0" d="M349.7,76.8h4.1l6.1,17.2H356l-1.1-3.5h-6.3l-1.2,3.5h-3.8L349.7,76.8z M349.5,87.5h4.4l-2.2-6.8L349.5,87.5z"
		/>
	<polygon class="st0" points="362,76.8 365.6,76.8 365.6,90.9 374.2,90.9 374.2,94 362,94 	"/>
	<path class="st0" d="M394.4,86.6c-1,0.8-2.4,1.3-4.3,1.3h-3.6V94h-3.6V76.8h7.4c1.7,0,3.1,0.4,4.1,1.3c1,0.9,1.5,2.3,1.5,4.1
		C395.9,84.3,395.4,85.7,394.4,86.6 M391.6,80.4c-0.5-0.4-1.1-0.6-1.9-0.6h-3.2v5.1h3.2c0.8,0,1.5-0.2,1.9-0.6
		c0.5-0.4,0.7-1.1,0.7-2C392.3,81.4,392.1,80.8,391.6,80.4"/>
	<path class="st0" d="M412,92.5c-1.3,1.3-3.2,2-5.6,2c-2.5,0-4.3-0.7-5.6-2c-1.7-1.6-2.6-4-2.6-7.1c0-3.1,0.9-5.5,2.6-7.1
		c1.3-1.3,3.2-2,5.6-2c2.5,0,4.3,0.7,5.6,2c1.7,1.6,2.6,3.9,2.6,7.1C414.6,88.5,413.7,90.8,412,92.5 M409.8,89.9
		c0.8-1,1.3-2.5,1.3-4.5c0-1.9-0.4-3.4-1.3-4.5c-0.8-1.1-2-1.6-3.4-1.6c-1.4,0-2.6,0.5-3.4,1.6c-0.8,1-1.3,2.5-1.3,4.5
		c0,1.9,0.4,3.4,1.3,4.5c0.8,1,2,1.6,3.4,1.6C407.8,91.5,408.9,90.9,409.8,89.9"/>
	<path class="st0" d="M428.4,77.3c0.6,0.3,1.2,0.7,1.6,1.2c0.4,0.4,0.7,0.9,0.9,1.4c0.2,0.5,0.3,1.1,0.3,1.8c0,0.8-0.2,1.6-0.6,2.4
		c-0.4,0.8-1.1,1.3-2,1.7c0.8,0.3,1.4,0.8,1.7,1.4c0.3,0.6,0.5,1.5,0.5,2.7V91c0,0.8,0,1.3,0.1,1.6c0.1,0.4,0.3,0.8,0.7,1V94h-4
		c-0.1-0.4-0.2-0.7-0.2-0.9c-0.1-0.5-0.1-1-0.2-1.5l0-1.6c0-1.1-0.2-1.8-0.6-2.2c-0.4-0.4-1-0.5-2-0.5h-3.5V94h-3.5V76.8h8.2
		C426.8,76.9,427.7,77,428.4,77.3 M420.9,79.8v4.6h3.9c0.8,0,1.3-0.1,1.7-0.3c0.7-0.3,1-1,1-1.9c0-1-0.3-1.7-1-2.1
		c-0.4-0.2-0.9-0.3-1.7-0.3H420.9z"/>
	<polygon class="st0" points="447.1,76.8 447.1,79.9 441.9,79.9 441.9,94 438.3,94 438.3,79.9 433.2,79.9 433.2,76.8 	"/>
	<path class="st0" d="M451.8,88.7c0.1,0.8,0.3,1.4,0.7,1.8c0.6,0.7,1.6,1.1,3.1,1.1c0.9,0,1.6-0.1,2.1-0.3c1-0.4,1.5-1,1.5-2
		c0-0.6-0.3-1-0.8-1.3c-0.5-0.3-1.3-0.6-2.4-0.8l-1.9-0.4c-1.8-0.4-3.1-0.8-3.8-1.3c-1.2-0.8-1.7-2-1.7-3.7c0-1.5,0.6-2.8,1.7-3.8
		c1.1-1,2.8-1.5,5-1.5c1.8,0,3.4,0.5,4.7,1.4c1.3,1,2,2.4,2,4.2h-3.5c-0.1-1-0.5-1.8-1.4-2.2c-0.6-0.3-1.3-0.4-2.1-0.4
		c-0.9,0-1.7,0.2-2.3,0.6c-0.6,0.4-0.8,0.9-0.8,1.6c0,0.6,0.3,1.1,0.8,1.4c0.4,0.2,1.1,0.4,2.3,0.7l3,0.7c1.3,0.3,2.3,0.7,3,1.2
		c1,0.8,1.5,2,1.5,3.5c0,1.6-0.6,2.9-1.8,3.9c-1.2,1-2.9,1.6-5.1,1.6c-2.3,0-4-0.5-5.3-1.5c-1.3-1-1.9-2.4-1.9-4.2H451.8z"/>
	<path class="st0" d="M473.4,78.6c1.4-1.4,3.1-2.1,5.3-2.1c2.9,0,5,0.9,6.3,2.8c0.7,1.1,1.1,2.1,1.2,3.2h-3.6
		c-0.2-0.8-0.5-1.4-0.9-1.9c-0.6-0.7-1.6-1.1-2.8-1.1c-1.3,0-2.3,0.5-3,1.6c-0.7,1.1-1.1,2.5-1.1,4.5c0,1.9,0.4,3.4,1.2,4.3
		c0.8,1,1.8,1.4,3,1.4c1.2,0,2.2-0.4,2.8-1.2c0.4-0.4,0.7-1.1,0.9-2h3.6c-0.3,1.9-1.1,3.4-2.4,4.6c-1.3,1.2-2.9,1.8-4.9,1.8
		c-2.4,0-4.4-0.8-5.8-2.4c-1.4-1.6-2.1-3.8-2.1-6.6C471,82.6,471.8,80.2,473.4,78.6"/>
	<path class="st0" d="M502.2,92.5c-1.3,1.3-3.2,2-5.6,2c-2.5,0-4.3-0.7-5.6-2c-1.7-1.6-2.6-4-2.6-7.1c0-3.1,0.9-5.5,2.6-7.1
		c1.3-1.3,3.2-2,5.6-2c2.5,0,4.3,0.7,5.6,2c1.7,1.6,2.6,3.9,2.6,7.1C504.8,88.5,504,90.8,502.2,92.5 M500,89.9
		c0.8-1,1.3-2.5,1.3-4.5c0-1.9-0.4-3.4-1.3-4.5c-0.8-1.1-2-1.6-3.4-1.6c-1.4,0-2.6,0.5-3.4,1.6s-1.3,2.5-1.3,4.5
		c0,1.9,0.4,3.4,1.3,4.5c0.8,1,2,1.6,3.4,1.6C498,91.5,499.1,90.9,500,89.9"/>
	<rect x="507.2" y="90.5" class="st0" width="3.5" height="3.5"/>
	<path class="st1" d="M283.4,110.7h2.6l3.9,11h-2.5l-0.7-2.3h-4.1l-0.7,2.3h-2.4L283.4,110.7z M283.3,117.6h2.8l-1.4-4.3
		L283.3,117.6z"/>
	<path class="st1" d="M303.9,110.7h3.3v11h-2.2v-7.5c0-0.2,0-0.5,0-0.9c0-0.4,0-0.7,0-0.9l-2.1,9.3h-2.2l-2.1-9.3c0,0.2,0,0.5,0,0.9
		c0,0.4,0,0.7,0,0.9v7.5h-2.2v-11h3.4l2,8.7L303.9,110.7z"/>
	<path class="st1" d="M315.3,113.7c0.6,0.3,1,0.7,1.4,1.2c0.3,0.5,0.6,1,0.7,1.7c0.1,0.4,0.1,0.9,0.1,1.6h-6c0,0.8,0.3,1.4,0.9,1.7
		c0.3,0.2,0.7,0.3,1.2,0.3c0.5,0,0.9-0.1,1.2-0.4c0.2-0.1,0.3-0.3,0.4-0.6h2.2c-0.1,0.5-0.3,1-0.8,1.5c-0.7,0.8-1.8,1.2-3.1,1.2
		c-1.1,0-2-0.3-2.9-1c-0.8-0.7-1.2-1.8-1.2-3.3c0-1.4,0.4-2.5,1.1-3.3c0.8-0.8,1.7-1.1,2.9-1.1C314.1,113.4,314.7,113.5,315.3,113.7
		 M312.1,115.6c-0.3,0.3-0.5,0.7-0.6,1.3h3.7c0-0.6-0.2-1-0.6-1.3c-0.3-0.3-0.8-0.4-1.3-0.4C312.8,115.1,312.4,115.3,312.1,115.6"/>
	<path class="st1" d="M329.5,113.6c0.3,0.1,0.7,0.4,1,0.7c0.2,0.3,0.4,0.6,0.5,1c0,0.3,0.1,0.7,0.1,1.2l0,5.1h-2.2v-5.2
		c0-0.3,0-0.6-0.1-0.8c-0.2-0.4-0.5-0.6-1-0.6c-0.6,0-1,0.2-1.2,0.7c-0.1,0.3-0.2,0.6-0.2,0.9v4.9H324v-4.9c0-0.5,0-0.8-0.1-1.1
		c-0.2-0.4-0.5-0.6-1.1-0.6c-0.6,0-1,0.2-1.2,0.6c-0.1,0.2-0.2,0.6-0.2,1v4.9h-2.2v-8.2h2.1v1.2c0.3-0.4,0.5-0.7,0.7-0.9
		c0.4-0.3,1-0.5,1.6-0.5c0.6,0,1.1,0.1,1.5,0.4c0.3,0.3,0.5,0.6,0.7,1c0.3-0.5,0.6-0.8,1-1.1c0.4-0.2,0.9-0.3,1.5-0.3
		C328.8,113.4,329.1,113.5,329.5,113.6"/>
	<path class="st1" d="M340.7,114.6c0.6,0.8,0.9,1.8,0.9,3c0,1.3-0.3,2.3-0.9,3.2c-0.6,0.8-1.4,1.3-2.5,1.3c-0.7,0-1.2-0.1-1.6-0.4
		c-0.2-0.2-0.5-0.4-0.8-0.8v1h-2.1v-11h2.1v3.9c0.3-0.4,0.6-0.7,0.9-0.9c0.4-0.2,0.9-0.4,1.5-0.4
		C339.2,113.4,340.1,113.8,340.7,114.6 M338.9,119.5c0.3-0.4,0.5-1,0.5-1.8c0-0.6-0.1-1.1-0.2-1.4c-0.3-0.7-0.8-1.1-1.6-1.1
		c-0.8,0-1.3,0.4-1.6,1.1c-0.2,0.4-0.2,0.9-0.2,1.5c0,0.7,0.2,1.3,0.5,1.7c0.3,0.5,0.8,0.7,1.4,0.7
		C338.2,120.2,338.6,120,338.9,119.5"/>
	<path class="st1" d="M349.2,113.7c0.6,0.3,1,0.7,1.4,1.2c0.3,0.5,0.6,1,0.7,1.7c0.1,0.4,0.1,0.9,0.1,1.6h-6c0,0.8,0.3,1.4,0.9,1.7
		c0.3,0.2,0.7,0.3,1.2,0.3c0.5,0,0.9-0.1,1.2-0.4c0.2-0.1,0.3-0.3,0.4-0.6h2.2c-0.1,0.5-0.3,1-0.8,1.5c-0.7,0.8-1.8,1.2-3.1,1.2
		c-1.1,0-2-0.3-2.9-1c-0.8-0.7-1.2-1.8-1.2-3.3c0-1.4,0.4-2.5,1.1-3.3c0.8-0.8,1.7-1.1,2.9-1.1C348,113.4,348.6,113.5,349.2,113.7
		 M346,115.6c-0.3,0.3-0.5,0.7-0.6,1.3h3.7c0-0.6-0.2-1-0.6-1.3c-0.3-0.3-0.8-0.4-1.3-0.4C346.7,115.1,346.3,115.3,346,115.6"/>
	<path class="st1" d="M357.7,113.4c0,0,0.1,0,0.2,0v2.2c-0.1,0-0.3,0-0.4,0c-0.1,0-0.2,0-0.3,0c-0.9,0-1.4,0.3-1.7,0.8
		c-0.2,0.3-0.2,0.8-0.2,1.5v3.9h-2.2v-8.2h2v1.4c0.3-0.5,0.6-0.9,0.9-1.1c0.4-0.3,0.9-0.5,1.6-0.5
		C357.6,113.4,357.7,113.4,357.7,113.4"/>
	<path class="st1" d="M371.7,120.7c-0.7,0.9-1.7,1.3-3.1,1.3c-1.4,0-2.5-0.4-3.1-1.3c-0.7-0.9-1-1.9-1-3.1c0-1.2,0.3-2.2,1-3.1
		c0.7-0.9,1.7-1.3,3.1-1.3c1.4,0,2.5,0.4,3.1,1.3c0.7,0.9,1,1.9,1,3.1C372.8,118.9,372.4,119.9,371.7,120.7 M370,119.6
		c0.3-0.4,0.5-1.1,0.5-1.9c0-0.8-0.2-1.4-0.5-1.9s-0.8-0.7-1.4-0.7c-0.6,0-1.1,0.2-1.4,0.7c-0.3,0.4-0.5,1.1-0.5,1.9
		c0,0.8,0.2,1.4,0.5,1.9c0.3,0.4,0.8,0.7,1.4,0.7C369.2,120.2,369.7,120,370,119.6"/>
	<path class="st1" d="M378.5,110.6c0.1,0,0.3,0,0.4,0v1.7c-0.1,0-0.3,0-0.6,0c-0.3,0-0.5,0.1-0.6,0.2c-0.1,0.1-0.2,0.3-0.2,0.4v0.7
		h1.4v1.5h-1.4v6.6h-2.1v-6.6h-1.2v-1.5h1.2v-0.5c0-0.9,0.1-1.5,0.4-1.8c0.3-0.5,1.1-0.7,2.2-0.7
		C378.2,110.6,378.3,110.6,378.5,110.6"/>
	<path class="st1" d="M385.1,115.2v-1.5h1.1v-2.3h2.1v2.3h1.3v1.5h-1.3v4.3c0,0.3,0,0.5,0.1,0.6c0.1,0.1,0.3,0.1,0.8,0.1
		c0.1,0,0.1,0,0.2,0c0.1,0,0.1,0,0.2,0v1.6l-1,0c-1,0-1.7-0.1-2.1-0.5c-0.2-0.2-0.4-0.6-0.4-1.1v-5H385.1z"/>
	<path class="st1" d="M397.7,113.6c0.4,0.2,0.7,0.4,1,0.8c0.2,0.3,0.4,0.6,0.4,0.9c0,0.3,0.1,0.8,0.1,1.6v4.8h-2.2v-5
		c0-0.4-0.1-0.8-0.2-1.1c-0.2-0.4-0.6-0.6-1.1-0.6c-0.6,0-1,0.2-1.3,0.6c-0.3,0.4-0.4,0.9-0.4,1.6v4.4h-2.1v-11h2.1v3.9
		c0.3-0.5,0.7-0.8,1.1-1c0.4-0.2,0.8-0.3,1.3-0.3C396.9,113.4,397.3,113.4,397.7,113.6"/>
	<path class="st1" d="M407.3,113.7c0.6,0.3,1,0.7,1.4,1.2c0.3,0.5,0.6,1,0.7,1.7c0.1,0.4,0.1,0.9,0.1,1.6h-6c0,0.8,0.3,1.4,0.9,1.7
		c0.3,0.2,0.7,0.3,1.2,0.3c0.5,0,0.9-0.1,1.2-0.4c0.2-0.1,0.3-0.3,0.4-0.6h2.2c-0.1,0.5-0.3,1-0.8,1.5c-0.7,0.8-1.8,1.2-3.1,1.2
		c-1.1,0-2-0.3-2.9-1c-0.8-0.7-1.2-1.8-1.2-3.3c0-1.4,0.4-2.5,1.1-3.3c0.8-0.8,1.7-1.1,2.9-1.1C406.1,113.4,406.8,113.5,407.3,113.7
		 M404.1,115.6c-0.3,0.3-0.5,0.7-0.6,1.3h3.7c0-0.6-0.2-1-0.6-1.3c-0.3-0.3-0.8-0.4-1.3-0.4C404.9,115.1,404.4,115.3,404.1,115.6"/>
	<path class="st1" d="M470.6,114.1c-0.2-0.8-0.6-1.3-1.3-1.6c-0.4-0.2-0.8-0.2-1.3-0.2c-0.9,0-1.6,0.3-2.2,1c-0.6,0.7-0.9,1.7-0.9,3
		c0,1.4,0.3,2.3,0.9,2.9c0.6,0.6,1.3,0.8,2.1,0.8c0.8,0,1.4-0.2,1.9-0.7c0.5-0.4,0.8-1,0.9-1.7h-2.6v-1.8h4.6v5.9h-1.5l-0.2-1.4
		c-0.4,0.5-0.8,0.9-1.2,1.1c-0.6,0.4-1.4,0.6-2.2,0.6c-1.5,0-2.7-0.5-3.6-1.5c-1-1-1.5-2.4-1.5-4.2c0-1.8,0.5-3.2,1.5-4.3
		c1-1.1,2.3-1.6,3.9-1.6c1.4,0,2.5,0.4,3.4,1.1c0.9,0.7,1.3,1.6,1.5,2.7H470.6z"/>
	<path class="st1" d="M480.2,113.4c0,0,0.1,0,0.2,0v2.2c-0.1,0-0.3,0-0.4,0c-0.1,0-0.2,0-0.3,0c-0.9,0-1.4,0.3-1.7,0.8
		c-0.2,0.3-0.2,0.8-0.2,1.5v3.9h-2.2v-8.2h2v1.4c0.3-0.5,0.6-0.9,0.9-1.1c0.4-0.3,0.9-0.5,1.6-0.5
		C480.2,113.4,480.2,113.4,480.2,113.4"/>
	<path class="st1" d="M489.3,120.7c-0.7,0.9-1.7,1.3-3.1,1.3s-2.5-0.4-3.1-1.3c-0.7-0.9-1-1.9-1-3.1c0-1.2,0.3-2.2,1-3.1
		c0.7-0.9,1.7-1.3,3.1-1.3s2.5,0.4,3.1,1.3c0.7,0.9,1,1.9,1,3.1C490.3,118.9,489.9,119.9,489.3,120.7 M487.6,119.6
		c0.3-0.4,0.5-1.1,0.5-1.9c0-0.8-0.2-1.4-0.5-1.9s-0.8-0.7-1.4-0.7c-0.6,0-1.1,0.2-1.4,0.7c-0.3,0.4-0.5,1.1-0.5,1.9
		c0,0.8,0.2,1.4,0.5,1.9c0.3,0.4,0.8,0.7,1.4,0.7C486.7,120.2,487.2,120,487.6,119.6"/>
	<path class="st1" d="M494.7,113.6v4.9c0,0.5,0.1,0.8,0.2,1c0.2,0.4,0.6,0.6,1.1,0.6c0.7,0,1.2-0.3,1.5-0.9c0.1-0.3,0.2-0.7,0.2-1.3
		v-4.4h2.2v8.2h-2.1v-1.2c0,0-0.1,0.1-0.1,0.2c-0.1,0.1-0.2,0.2-0.3,0.3c-0.3,0.3-0.7,0.5-1,0.6s-0.7,0.2-1.1,0.2
		c-1.2,0-2-0.4-2.4-1.3c-0.2-0.5-0.4-1.2-0.4-2.1v-4.9H494.7z"/>
	<path class="st1" d="M509.6,114.5c0.7,0.7,1,1.7,1,3.1c0,1.4-0.3,2.5-1,3.3c-0.7,0.8-1.5,1.1-2.5,1.1c-0.7,0-1.2-0.2-1.6-0.5
		c-0.2-0.2-0.5-0.4-0.7-0.8v4.3h-2.1v-11.4h2v1.2c0.2-0.4,0.5-0.6,0.7-0.8c0.5-0.4,1-0.5,1.7-0.5
		C508.1,113.4,508.9,113.7,509.6,114.5 M508,116c-0.3-0.5-0.8-0.7-1.4-0.7c-0.8,0-1.3,0.4-1.6,1.1c-0.2,0.4-0.2,0.9-0.2,1.5
		c0,0.9,0.3,1.6,0.8,2c0.3,0.2,0.7,0.3,1.1,0.3c0.6,0,1.1-0.2,1.4-0.7c0.3-0.5,0.5-1.1,0.5-1.8C508.4,117,508.3,116.5,508,116"/>
	<path class="st1" d="M428.4,113.4c0.3,0.1,0.5,0.2,0.6,0.4c1.2,1.1,0.1,1.9,0.1,1.9c1.1-0.2,2.2-0.9,2.2-2.2c0-1.1-1.6-2.9-4.5-3.3
		c-1.6-2.5-3.3-3.4-4.6-3.4h0c-0.4,0-0.8,0.1-1.1,0.2c-1,0.5-1.6,1.7-1.4,3.6c0,0,0.6-2,2.5-1.5c0.6,0.2,1.3,0.5,2,1.1
		c-0.8,0.1-1.8,0.3-2.7,0.7c-0.9,0.3-1.6,0.7-2.3,1.2c-0.1-0.8-0.2-1.7-0.2-2.7c0,0-0.6,1.3-0.7,3.4c-2.2,2.1-2.8,4.6-2.8,4.6
		c0.8-1.3,1.8-2.3,2.9-3c0.1,0.7,0.3,1.4,0.6,2.2c-1.8,1.4-2.5,3.7-2.5,3.7c0.9-1.3,1.9-2.2,2.9-2.8c0,0.1,0.1,0.2,0.1,0.3
		c2,4,4.4,4.4,5.9,3.9c1.3-0.5,1.9-1.9,1.9-3.7c0,0-0.3,1.3-1.4,1.7c-1.3,0.5-3.4-0.6-4.9-2.9c2-0.6,3.8-0.1,4.3,0.4
		c0.7,0.7,0.1,1.3,0.1,1.3c0.7-0.1,1.6-0.6,1.4-1.7c-0.1-1-2.7-2.7-6.4-1c-0.3-0.6-0.6-1.3-0.8-2c2.4-1.2,5.1-1.2,6.9-0.9
		c1,1.8,1.6,4.2,0.9,7.1C427.5,120,429.6,117.4,428.4,113.4"/>
	<path class="st1" d="M445.4,116.7c-0.1-0.1-0.2-0.2-0.3-0.3c-0.4-0.4-1-0.8-1.8-1.1l-1.1-0.4c-0.3-0.1-0.6-0.3-0.8-0.4
		c-0.2-0.2-0.3-0.4-0.3-0.7c0-0.4,0.1-0.7,0.4-0.9c0.3-0.2,0.7-0.4,1.1-0.4c0.4,0,0.7,0.1,0.9,0.2c0.1,0,0.1,0.1,0.2,0.1
		c0.1,0.1,0.3,0.3,0.4,0.6l0,0l0.1,0.2l0.1,0l1.4-0.8l0,0c-0.2-0.4-0.5-0.7-0.8-1c-0.6-0.7-1.4-1-2.3-1c-0.9,0-1.7,0.3-2.3,0.8
		c-0.6,0.6-0.9,1.2-0.9,2.1c0,0.7,0.3,1.4,0.8,1.9c0.4,0.4,0.9,0.7,1.5,1l1,0.4c0.3,0.1,0.5,0.2,0.7,0.4c0.1,0.1,0.2,0.2,0.3,0.2
		c0,0,0,0,0,0c0.1,0.1,0.2,0.3,0.3,0.5c0.1,0.2,0.1,0.4,0.1,0.6c0,0.5-0.2,0.9-0.5,1.3c-0.3,0.3-0.7,0.5-1.2,0.5
		c-0.5,0-0.9-0.1-1.2-0.4c0,0-0.1-0.1-0.1-0.1c-0.2-0.2-0.3-0.7-0.4-1.3l0,0v0v0l0-0.2l-0.2,0c0,0,0,0,0,0l-1.7,0.4l0,0
		c0.1,1,0.5,1.8,1.1,2.4c0,0,0.1,0.1,0.1,0.1c0.6,0.6,1.4,0.8,2.3,0.8c1,0,1.8-0.3,2.5-1c0.7-0.7,1-1.5,1-2.5
		C446.1,117.8,445.9,117.2,445.4,116.7"/>
	<path class="st1" d="M456.5,121.9l-5.3-11.4l-5.5,11.4h2l1.2-2.6h4.5l1.1,2.6H456.5z M449.7,117.5l1.5-3.1l1.4,3.1H449.7z"/>
	<path class="st1" d="M437.8,111.9C437.8,111.9,437.8,111.8,437.8,111.9c-0.5-0.4-0.9-0.7-1.3-0.8c-0.5-0.1-1.2-0.2-2.1-0.2h-1.9v11
		h1.8v-4.4h0.7c1.1,0,2-0.3,2.7-0.9c0.7-0.6,1-1.4,1-2.4C438.8,113.3,438.5,112.5,437.8,111.9C437.8,111.9,437.8,111.9,437.8,111.9
		 M434.8,115.8h-0.4v-3.2h0.5c0.8,0,1.4,0.2,1.8,0.5c0.2,0.3,0.3,0.6,0.3,1C437,115.2,436.3,115.8,434.8,115.8"/>
</g>
</svg>
