<?xml version="1.0" encoding="UTF-8"?>
<svg xmlns="http://www.w3.org/2000/svg" xmlns:xlink="http://www.w3.org/1999/xlink" xmlns:inkscape="http://www.inkscape.org/namespaces/inkscape" version="1.1" width="170" height="98" viewBox="0 0 170 98">
  <defs>
    <clipPath id="clip_0">
      <path transform="matrix(1,0,0,-1,0,98)" d="M0 98H170V0H0Z"></path>
    </clipPath>
  </defs>
  <g>
    <g clip-path="url(#clip_0)">
      <path transform="matrix(1,0,0,-1,31.1254,75.2807)" d="M0 0C-1.326-4.973-4.061-8.565-8.3-11.178-4.3-13.254-.333-13.975 3.874-12.966 4.154-12.898 4.55-12.527 4.57-12.273 4.887-8.134 4.294-4.239 1.295-1.066 .974-.727 .569-.464 0 0M7.617 19.111C7.9 19.38 8.195 19.612 8.433 19.893 10.632 22.497 14.495 22.172 16.197 19.253 16.398 18.909 16.773 18.665 17.068 18.375 17.175 18.792 17.374 19.209 17.376 19.627 17.399 23.92 17.392 28.214 17.387 32.507 17.387 32.84 17.343 33.173 17.312 33.613 13.689 33.613 10.134 33.631 6.579 33.599 5.74 33.592 5.539 33.07 6.118 32.387 7.481 30.779 7.995 28.943 7.886 26.857 7.806 25.329 7.898 23.791 7.86 22.259 7.835 21.278 7.712 20.299 7.617 19.111M-16.972 16.19C-14.52 18.518-11.854 20.781-9.53 23.354-8.101 24.937-7.041 26.918-6.106 28.861-5.417 30.293-5.2 31.953-4.741 33.625H-16.972ZM.271 31.271C.147 30.935 .077 30.808 .054 30.674-.989 24.588-3.987 19.669-8.83 15.875-12.257 13.19-14.773 9.821-16.442 5.827-16.8 4.971-16.998 3.974-16.98 3.047-16.913-.505-15.644-3.659-13.589-6.534-13.078-7.25-12.663-7.323-11.92-6.836-7.44-3.896-4.896 .22-4.329 5.535-4.23 6.46-3.919 7.184-3.118 7.606-1.829 8.286-.547 8.236 .664 7.365 4.424 4.659 7.286 1.209 8.973-3.109 9.781-5.179 10.274-7.37 10.946-9.625 14.78-6.678 16.978-2.791 17.313 2.03 17.677 7.257 15.809 11.645 11.914 15.221 9.847 13.501 7.883 11.911 5.971 10.258 5.102 9.506 4.191 9.456 3.197 9.818 2.115 10.214 1.22 10.959 1.246 12.128 1.297 14.449 1.342 16.814 1.816 19.07 2.302 21.378 2.806 23.624 2.369 25.979 2.027 27.815 1.433 29.548 .271 31.271M-22.449 39.275H22.775C22.798 38.826 22.834 38.452 22.834 38.078 22.837 26.494 22.855 14.911 22.831 3.327 22.808-7.938 13.73-17.627 2.506-18.755-9.205-19.931-20.114-11.894-22.176-.039-22.34 .901-22.472 1.862-22.474 2.813-22.494 14.704-22.487 26.594-22.485 38.485-22.485 38.71-22.465 38.936-22.449 39.275" fill="#ef4623"></path>
      <path transform="matrix(1,0,0,-1,7.9995,26.5849)" d="M0 0C1.992 1.094 3.813 2.124 5.668 3.087 6.01 3.265 6.49 3.201 6.906 3.202 9.188 3.212 11.471 3.207 14.107 3.207 13.608 3.767 13.359 4.075 13.08 4.355 11.131 6.312 9.149 8.236 7.242 10.232 6.741 10.757 6.348 11.458 6.113 12.148 5.551 13.799 5.113 15.491 4.554 17.41 7.682 16.307 10.901 16.172 13.141 13.434 14.905 11.277 17.056 9.437 19.039 7.46 19.299 7.201 19.582 6.964 20.032 6.555 20.078 7.198 20.132 7.604 20.133 8.011 20.14 10.964 20.101 13.918 20.163 16.871 20.178 17.6 20.393 18.379 20.719 19.035 21.5 20.606 22.401 22.117 23.306 23.745 24.318 21.922 25.307 20.197 26.229 18.437 26.428 18.057 26.439 17.55 26.442 17.101 26.46 14.109 26.448 11.117 26.456 8.125 26.457 7.681 26.517 7.236 26.57 6.51 27.063 6.958 27.37 7.213 27.652 7.495 30.069 9.906 32.457 12.346 34.915 14.715 35.462 15.243 36.207 15.644 36.933 15.89 38.546 16.438 40.205 16.852 42.031 17.373 41.431 15.262 40.906 13.325 40.314 11.409 40.199 11.036 39.856 10.711 39.565 10.417 37.568 8.4 35.555 6.399 33.551 4.389 33.271 4.107 33.015 3.801 32.748 3.506L32.854 3.207C33.94 3.207 35.037 3.111 36.111 3.225 39.28 3.562 42.167 2.931 44.759 1.023 45.272 .646 45.88 .396 46.61-.003 44.683-1.073 42.906-2.079 41.104-3.039 40.825-3.188 40.434-3.156 40.094-3.156 28.894-3.161 17.693-3.166 6.493-3.144 5.988-3.143 5.437-2.986 4.986-2.75 3.367-1.903 1.782-.99 0 0" fill="#ef4623"></path>
      <path transform="matrix(1,0,0,-1,66.7861,62.5034)" d="M0 0C-2.724-.069-2.725-.069-2.715-2.765-2.714-2.994-2.788-3.265-2.691-3.442-2.539-3.724-2.274-4.15-2.053-4.153-.528-4.172 1.008-4.188 2.519-4.017 3.47-3.908 4.026-3.192 4.043-2.16 4.06-1.144 3.613-.438 2.609-.25 1.754-.09 .871-.078 0 0M-2.708-7.002C-2.708-8.399-2.744-9.659-2.677-10.913-2.664-11.167-2.263-11.604-2.032-11.608-.501-11.646 1.042-11.683 2.563-11.537 4.119-11.389 4.766-10.594 4.731-9.239 4.699-7.964 3.894-7.102 2.424-7.022 .783-6.934-.866-7.002-2.708-7.002M5.125-5.375C7.196-6.227 8.323-7.613 8.153-9.841 7.948-12.531 6.175-14.227 3.267-14.313 .469-14.397-2.334-14.322-5.134-14.356-5.826-14.365-5.977-14.05-5.976-13.454-5.966-8.391-5.961-3.326-5.979 1.737-5.982 2.463-5.667 2.644-5.003 2.635-2.511 2.601-.017 2.628 2.477 2.594 4.881 2.562 6.54 1.517 7.128-.27 7.75-2.162 7.188-3.667 5.125-5.375" fill="#4c6f70"></path>
      <path transform="matrix(1,0,0,-1,138.0527,67.0278)" d="M0 0C.69 0 1.383-.029 2.071 .007 3.505 .08 4.371 .918 4.396 2.208 4.421 3.441 3.519 4.351 2.095 4.434 1.062 4.494 .023 4.464-1.013 4.466-2.759 4.469-2.759 4.466-2.76 2.746-2.762-.015-2.762-.015 0 0M3.481-2.361C6.218-4.286 7.287-7.193 9.174-9.806 7.813-9.806 6.712-9.851 5.618-9.776 5.324-9.757 4.982-9.427 4.788-9.151 3.642-7.522 2.529-5.869 1.409-4.222 .624-3.065-.488-2.648-1.852-2.656-2.574-2.66-2.776-2.946-2.768-3.616-2.742-5.638-2.758-7.66-2.758-9.663-2.999-9.734-3.104-9.789-3.211-9.794-6.019-9.916-6.02-9.915-6.019-7.091-6.019-2.796-5.98 1.5-6.045 5.795-6.062 6.934-5.695 7.232-4.606 7.183-1.662 7.05 1.298 7.156 4.228 6.9 6.317 6.718 7.587 5.103 7.79 3.008 8.012 .731 6.953-1.111 4.972-1.874 4.548-2.037 4.106-2.158 3.481-2.361" fill="#4c6f70"></path>
      <path transform="matrix(1,0,0,-1,90.4941,68.0395)" d="M0 0C-.036 .005-.071 .009-.107 .014-.107 .435-.083 .857-.111 1.276-.289 3.902-2.048 5.791-4.452 5.955-6.983 6.128-8.972 4.683-9.399 2.031-9.637 .559-9.598-1.028-9.324-2.496-8.924-4.645-6.936-6.076-4.839-6.074-2.703-6.072-.911-4.67-.359-2.481-.156-1.676-.115-.828 0 0M-13.184 .008C-13.013 1.101-12.947 2.222-12.652 3.28-11.733 6.573-9.222 8.443-5.514 8.716-1.077 9.042 2.221 6.747 3.114 2.523 3.603 .219 3.576-2.134 2.587-4.353 1.347-7.135-.872-8.555-3.871-8.775-5.685-8.909-7.468-8.779-9.114-7.875-11.773-6.413-13.169-3.667-13.184 .008" fill="#4c6f70"></path>
      <path transform="matrix(1,0,0,-1,115.6562,50.6044)" d="M0 0C.275-.053 .424-.11 .571-.106 1.644-.081 2.715-.05 3.786-.008 5.444 .058 6.467 .78 6.928 2.401 7.546 4.583 7.583 6.802 6.956 8.996 6.587 10.289 5.779 11.297 4.444 11.448 2.99 11.612 1.504 11.485 0 11.485ZM-3.338-2.795V14.353C-2.81 14.386-2.328 14.443-1.846 14.443 .223 14.44 2.297 14.511 4.358 14.385 7.577 14.19 9.536 12.465 10.358 9.243 10.947 6.937 11.008 4.61 10.354 2.304 9.435-.946 7.676-2.546 4.405-2.762 1.861-2.93-.701-2.795-3.338-2.795" fill="#4c6f70"></path>
      <path transform="matrix(1,0,0,-1,61.0043,47.7245)" d="M0 0C.841 .077 1.707 .212 2.57 .198 2.813 .194 3.148-.204 3.274-.494 4.226-2.675 6.528-3.559 8.724-2.537 9.625-2.118 10.245-1.432 10.211-.409 10.179 .571 9.439 1.044 8.59 1.308 6.913 1.827 5.197 2.237 3.548 2.835 1.995 3.398 .915 4.491 .552 6.19 .128 8.17 .929 10.133 2.734 11.037 5.286 12.313 7.923 12.274 10.485 11.078 12.145 10.303 13.032 8.571 12.85 6.734 11.993 6.734 11.115 6.683 10.25 6.765 9.985 6.79 9.653 7.13 9.523 7.406 8.674 9.208 5.585 9.822 4.086 8.458 3.32 7.76 3.409 6.723 4.407 6.177 5.167 5.762 6.035 5.535 6.87 5.272 7.962 4.929 9.094 4.699 10.166 4.303 12.555 3.419 13.625 1.751 13.499-.731 13.381-3.023 12.026-4.672 9.68-5.322 7.679-5.875 5.667-5.875 3.686-5.233 1.407-4.496-.134-2.346 0 0" fill="#4c6f70"></path>
      <path transform="matrix(1,0,0,-1,159.457,64.2905)" d="M0 0C-.856-.04-1.73-.137-2.597-.086-2.857-.07-3.184 .314-3.326 .605-4.191 2.37-7.337 2.931-8.778 1.552-9.501 .86-9.359-.245-8.357-.724-7.437-1.165-6.42-1.411-5.44-1.723-4.423-2.047-3.37-2.275-2.384-2.673-.277-3.521 .807-5.231 .735-7.419 .667-9.54-.605-11.328-2.646-12.018-4.77-12.734-6.95-12.741-9.084-12.107-11.402-11.419-12.882-9.332-12.908-6.892-12.618-6.856-12.314-6.851-12.026-6.78-10.677-6.45-9.749-6.444-9.067-8.141-8.242-10.19-4.55-10.351-3.125-8.637-2.257-7.593-2.47-6.342-3.716-5.797-4.653-5.388-5.677-5.179-6.658-4.869-7.604-4.57-8.576-4.326-9.484-3.936-11.478-3.078-12.483-1.437-12.359 .582-12.236 2.597-11.04 4.101-8.926 4.681-6.892 5.239-4.829 5.228-2.837 4.463-.935 3.734 .17 1.982 0 0" fill="#4c6f70"></path>
      <path transform="matrix(1,0,0,-1,121.456,74.2407)" d="M0 0H9.291V-2.619H-3.371V14.173H9.049V11.624H-.007V7.619H8.362V4.917H0Z" fill="#4c6f70"></path>
      <path transform="matrix(1,0,0,-1,86.8398,46.644)" d="M0 0C-.836 2.186-1.588 4.149-2.34 6.113-2.443 6.112-2.547 6.11-2.651 6.109-3.378 4.115-4.105 2.12-4.877 0ZM6.07-6.653C5.896-6.722 5.861-6.746 5.825-6.748 2.647-6.915 2.615-6.927 1.511-3.925 1.212-3.114 .838-2.792-.046-2.833-1.691-2.909-3.344-2.884-4.991-2.841-5.664-2.824-6.097-2.996-6.229-3.693-6.249-3.804-6.311-3.907-6.35-4.015-7.439-6.96-7.439-6.96-10.794-6.702-10.714-6.408-10.663-6.122-10.561-5.855-8.629-.822-6.673 4.202-4.774 9.248-4.48 10.027-4.087 10.287-3.275 10.283-.696 10.272-.701 10.301 .274 7.87 2.068 3.401 3.87-1.064 5.666-5.533 5.807-5.881 5.922-6.24 6.07-6.653" fill="#4c6f70"></path>
      <path transform="matrix(1,0,0,-1,108.5849,36.1933)" d="M0 0C-.121-4.484-.124-8.769-.396-13.037-.552-15.49-2.776-17.106-5.771-17.241-6.984-17.295-8.229-17.217-9.424-16.997-11.941-16.534-13.495-14.498-13.563-11.534-13.646-8.01-13.593-4.482-13.628-.957-13.635-.279-13.426-.02-12.72 .012-10.358 .119-10.374 .145-10.355-2.175-10.332-5.2-10.291-8.226-10.241-11.25-10.207-13.323-8.93-14.54-6.805-14.562-4.755-14.583-3.545-13.518-3.499-11.424-3.425-8.091-3.402-4.754-3.494-1.423-3.528-.195-3.114 .137-2.002 .011-1.439-.052-.863 0 0 0" fill="#4c6f70"></path>
      <path transform="matrix(1,0,0,-1,106.8642,60.2617)" d="M0 0V-13.958H8.455V-16.598H-3.266V0Z" fill="#4c6f70"></path>
      <path transform="matrix(1,0,0,-1,0,98)" d="M99.896 21.14H96.68301V37.932H99.896Z" fill="#4c6f70"></path>
      <path transform="matrix(1,0,0,-1,132.6835,53.4506)" d="M0 0H-3.165C-3.197 .422-3.25 .792-3.251 1.163-3.257 5.989-3.226 10.815-3.276 15.641-3.288 16.714-2.929 17.106-1.895 16.981-1.517 16.936-1.093 17.065-.758 16.937-.457 16.823-.034 16.467-.032 16.214 .01 10.854 0 5.495 0 0" fill="#4c6f70"></path>
      <path transform="matrix(1,0,0,-1,158.6845,81.5629)" d="M0 0C0 .068 .026 .122 .077 .163 .128 .204 .184 .225 .245 .225H.958C1.025 .225 1.082 .204 1.126 .163 1.17 .122 1.192 .068 1.192 0V-.743C1.192-.798 1.17-.847 1.126-.892 1.082-.936 1.025-.957 .958-.957H.245C.184-.957 .128-.936 .077-.892 .026-.847 0-.798 0-.743ZM-.896 1.447C-.896 1.508-.871 1.561-.819 1.604-.769 1.648-.716 1.671-.662 1.671H.011C.078 1.671 .136 1.648 .184 1.604 .231 1.561 .255 1.508 .255 1.447V.825C.255 .765 .229 .714 .179 .673 .128 .632 .068 .611 0 .611H-.672C-.727 .611-.777 .632-.825 .673-.872 .714-.896 .765-.896 .825ZM-1.885 0C-1.885 .068-1.86 .122-1.812 .163-1.766 .204-1.708 .225-1.64 .225H-.937C-.869 .225-.81 .204-.759 .163-.708 .122-.683 .068-.683 0V-.743C-.683-.798-.709-.847-.764-.892-.818-.936-.876-.957-.937-.957H-1.64C-1.708-.957-1.766-.936-1.812-.892-1.86-.847-1.885-.798-1.885-.743ZM-4.706-5.186C-4.706-5.151-4.669-5.123-4.594-5.099-4.52-5.075-4.444-5.063-4.37-5.063H-4.044C-3.915-5.063-3.788-5.044-3.662-5.007-3.536-4.97-3.474-4.873-3.474-4.717V-2.648C-3.474-2.588-3.453-2.536-3.412-2.496-3.372-2.455-3.324-2.435-3.27-2.435H-2.404C-2.35-2.435-2.304-2.455-2.267-2.496-2.229-2.536-2.21-2.588-2.21-2.648V-4.921C-2.189-4.961-2.152-4.993-2.099-5.018-2.044-5.041-1.986-5.06-1.925-5.073-1.864-5.087-1.801-5.096-1.736-5.099-1.672-5.103-1.616-5.104-1.568-5.104H-1.416C-1.354-5.104-1.292-5.101-1.228-5.094-1.163-5.087-1.104-5.071-1.049-5.048-.994-5.024-.95-4.99-.916-4.946-.883-4.901-.865-4.843-.865-4.768V-2.282C-.865-2.228-.845-2.182-.805-2.145-.764-2.107-.716-2.088-.662-2.088H.194C.248-2.088 .296-2.107 .337-2.145 .377-2.182 .397-2.228 .397-2.282V-4.921C.438-5.002 .53-5.053 .673-5.073 .815-5.094 .954-5.104 1.091-5.104H1.325C1.488-5.104 1.597-5.09 1.65-5.063 1.705-5.036 1.732-4.94 1.732-4.777V-4.141-3.413C1.732-3.161 1.73-2.907 1.728-2.648 1.724-2.391 1.719-2.14 1.712-1.895 1.712-1.848 1.729-1.803 1.763-1.763 1.797-1.722 1.845-1.701 1.905-1.701H2.771C2.846-1.701 2.9-1.72 2.935-1.757 2.969-1.795 2.985-1.841 2.985-1.895 2.992-2.119 2.997-2.329 3.001-2.526 3.004-2.724 3.008-2.91 3.011-3.087 3.015-3.264 3.016-3.438 3.016-3.611V-4.146-4.717C3.016-4.907 3.015-5.11 3.011-5.328 3.008-5.545 2.995-5.749 2.976-5.939 2.962-6 2.941-6.057 2.914-6.107 2.887-6.158 2.833-6.201 2.751-6.234 2.608-6.275 2.436-6.305 2.231-6.321 2.027-6.338 1.807-6.347 1.569-6.347H1.437C1.199-6.347 .941-6.328 .663-6.291 .384-6.254 .146-6.163-.051-6.021-.207-6.149-.396-6.24-.616-6.291-.837-6.342-1.066-6.367-1.304-6.367H-1.437C-1.687-6.367-1.922-6.344-2.139-6.296-2.356-6.248-2.557-6.156-2.74-6.021-2.917-6.156-3.129-6.248-3.377-6.296-3.625-6.344-3.864-6.367-4.095-6.367H-4.37C-4.444-6.367-4.52-6.356-4.594-6.337-4.669-6.316-4.706-6.285-4.706-6.245ZM-7.915-7.813C-7.915-7.712-7.857-7.661-7.742-7.661H-7.528C-7.338-7.661-7.177-7.652-7.044-7.636-6.912-7.618-6.805-7.579-6.724-7.519-6.642-7.457-6.582-7.367-6.545-7.248-6.508-7.129-6.489-6.965-6.489-6.754V-2.18C-6.489-2.126-6.471-2.08-6.433-2.042-6.396-2.005-6.347-1.986-6.285-1.986H-5.399C-5.345-1.986-5.299-2.005-5.262-2.042-5.225-2.08-5.205-2.126-5.205-2.18V-5.063H-4.299V-6.367H-5.236V-6.846C-5.236-7.077-5.251-7.291-5.282-7.487-5.312-7.685-5.365-7.854-5.439-7.997-5.596-8.289-5.81-8.494-6.082-8.613-6.354-8.732-6.703-8.792-7.131-8.792-7.186-8.792-7.284-8.79-7.427-8.787-7.569-8.783-7.685-8.774-7.772-8.761-7.868-8.741-7.915-8.676-7.915-8.567ZM-15.077-5.246C-15.077-5.192-15.043-5.148-14.976-5.114-14.907-5.08-14.829-5.063-14.741-5.063H-10.89-10.63-10.223C-10.077-5.063-9.939-5.062-9.811-5.058-9.682-5.055-9.59-5.05-9.535-5.043-9.528-4.927-9.523-4.807-9.52-4.681-9.517-4.556-9.515-4.438-9.515-4.329-9.515-4.03-9.561-3.781-9.652-3.581-9.744-3.381-9.876-3.219-10.05-3.097-10.223-2.975-10.434-2.887-10.682-2.832-10.93-2.777-11.213-2.75-11.532-2.75H-13.702C-13.852-2.75-13.93-2.696-13.937-2.588-13.937-2.574-13.938-2.55-13.941-2.517-13.944-2.482-13.948-2.446-13.951-2.409-13.955-2.372-13.957-2.336-13.957-2.302V-2.241C-13.957-2.071-13.943-1.908-13.916-1.752-13.889-1.596-13.847-1.439-13.788-1.283-13.73-1.127-13.661-.964-13.58-.795-13.498-.625-13.403-.441-13.294-.244L-12.53 1.182C-12.496 1.236-12.457 1.284-12.413 1.324-12.369 1.365-12.313 1.386-12.245 1.386H-11.328C-11.273 1.386-11.236 1.374-11.216 1.35-11.195 1.326-11.186 1.298-11.186 1.264-11.186 1.229-11.195 1.192-11.216 1.151L-12.174-.672C-12.215-.747-12.255-.828-12.296-.917-12.337-1.005-12.374-1.09-12.408-1.171-12.442-1.253-12.471-1.329-12.495-1.4-12.519-1.472-12.53-1.521-12.53-1.548-12.238-1.535-12.006-1.524-11.832-1.518-11.659-1.511-11.501-1.508-11.358-1.508-10.781-1.508-10.293-1.572-9.892-1.701-9.491-1.83-9.165-2.021-8.914-2.271-8.662-2.523-8.479-2.837-8.363-3.214-8.248-3.591-8.19-4.024-8.19-4.513V-4.768C-8.19-4.843-8.192-4.94-8.195-5.063-8.199-5.186-8.204-5.312-8.211-5.445-8.218-5.577-8.226-5.705-8.236-5.827-8.246-5.949-8.255-6.048-8.262-6.123-8.282-6.245-8.363-6.31-8.506-6.316-8.622-6.33-8.768-6.338-8.944-6.342-9.121-6.345-9.314-6.351-9.525-6.356-9.735-6.363-9.947-6.367-10.162-6.367H-10.758-14.741C-14.829-6.367-14.907-6.351-14.976-6.316-15.043-6.282-15.077-6.238-15.077-6.184ZM-17.318 .611C-17.318 .68-17.293 .735-17.242 .779-17.191 .823-17.135 .846-17.074 .846H-16.361C-16.293 .846-16.237 .823-16.192 .779-16.148 .735-16.127 .68-16.127 .611V-.184C-16.127-.244-16.148-.297-16.192-.341-16.237-.386-16.293-.407-16.361-.407H-17.074C-17.135-.407-17.191-.386-17.242-.341-17.293-.297-17.318-.244-17.318-.184ZM-18.674-3.881C-18.674-4.269-18.599-4.543-18.449-4.706-18.3-4.869-18.069-4.951-17.757-4.951H-17.604C-17.373-4.951-17.193-4.914-17.063-4.839-16.935-4.765-16.87-4.648-16.87-4.492V-2.588C-16.911-2.581-16.987-2.575-17.1-2.572-17.212-2.568-17.298-2.567-17.359-2.567-17.773-2.567-18.097-2.664-18.327-2.857-18.559-3.051-18.674-3.345-18.674-3.738ZM-19.203 .611C-19.203 .68-19.18 .735-19.132 .779-19.085 .823-19.026 .846-18.959 .846H-18.256C-18.188 .846-18.129 .823-18.077 .779-18.026 .735-18.001 .68-18.001 .611V-.184C-18.001-.244-18.028-.297-18.083-.341-18.137-.386-18.194-.407-18.256-.407H-18.959C-19.026-.407-19.085-.386-19.132-.341-19.18-.297-19.203-.244-19.203-.184ZM-19.957-3.922C-19.957-3.121-19.725-2.497-19.26-2.053-18.794-1.607-18.113-1.386-17.217-1.386-16.952-1.386-16.682-1.399-16.407-1.426-16.132-1.453-15.916-1.49-15.76-1.538-15.686-1.559-15.638-1.582-15.617-1.609-15.597-1.637-15.587-1.678-15.587-1.731V-4.523C-15.587-4.747-15.536-4.894-15.434-4.961-15.332-5.029-15.169-5.063-14.945-5.063H-14.67V-6.367H-15.139C-15.491-6.367-15.78-6.323-16.004-6.234-16.229-6.146-16.398-6-16.514-5.797-16.649-5.933-16.831-6.036-17.059-6.107-17.286-6.179-17.519-6.214-17.757-6.214H-17.889C-18.175-6.214-18.442-6.175-18.694-6.097-18.945-6.02-19.164-5.896-19.351-5.726-19.538-5.556-19.686-5.338-19.794-5.073-19.903-4.809-19.957-4.492-19.957-4.126ZM-25.204 1.182C-25.204 1.236-25.186 1.284-25.147 1.324-25.11 1.365-25.062 1.386-25 1.386H-24.083C-24.022 1.386-23.973 1.365-23.936 1.324-23.898 1.284-23.879 1.236-23.879 1.182V-6.153C-23.879-6.208-23.898-6.257-23.936-6.301-23.973-6.345-24.022-6.367-24.083-6.367H-25C-25.062-6.367-25.11-6.345-25.147-6.301-25.186-6.257-25.204-6.208-25.204-6.153ZM-29.523-5.186C-29.523-5.151-29.486-5.123-29.411-5.099-29.337-5.075-29.262-5.063-29.187-5.063H-28.494C-28.331-5.063-28.225-5.048-28.174-5.018-28.122-4.986-28.097-4.89-28.097-4.727V1.172C-28.097 1.232-28.077 1.284-28.036 1.324-27.995 1.365-27.948 1.386-27.894 1.386H-26.966C-26.912 1.386-26.866 1.365-26.829 1.324-26.791 1.284-26.772 1.232-26.772 1.172V-4.747C-26.772-4.931-26.776-5.133-26.783-5.354-26.79-5.574-26.804-5.776-26.823-5.96-26.837-6.027-26.859-6.085-26.89-6.133-26.92-6.181-26.977-6.221-27.058-6.255-27.133-6.275-27.236-6.292-27.368-6.306-27.501-6.319-27.646-6.331-27.802-6.342-27.958-6.352-28.119-6.358-28.285-6.362-28.452-6.365-28.604-6.367-28.739-6.367H-29.187C-29.262-6.367-29.337-6.356-29.411-6.337-29.486-6.316-29.523-6.285-29.523-6.245ZM-33.201-3.815V-4.252C-33.201-4.415-33.19-4.567-33.171-4.709-33.116-4.952-33.008-5.127-32.845-5.231-32.682-5.337-32.471-5.389-32.213-5.389-31.873-5.389-31.626-5.3-31.469-5.12-31.313-4.941-31.235-4.651-31.235-4.252V-3.815C-31.235-3.403-31.312-3.104-31.464-2.918-31.617-2.731-31.866-2.639-32.213-2.639-32.56-2.639-32.811-2.731-32.967-2.918-33.123-3.104-33.201-3.403-33.201-3.815M-35.738-5.186C-35.738-5.151-35.7-5.123-35.626-5.099-35.551-5.075-35.477-5.063-35.401-5.063H-35.096C-35.049-5.063-34.992-5.062-34.928-5.058-34.863-5.055-34.803-5.046-34.744-5.032-34.687-5.019-34.638-4.995-34.597-4.961-34.556-4.927-34.529-4.883-34.516-4.829-34.495-4.768-34.484-4.687-34.484-4.584V-3.729C-34.484-2.981-34.277-2.416-33.863-2.032-33.449-1.648-32.893-1.457-32.192-1.457-31.5-1.457-30.953-1.646-30.553-2.022-30.151-2.399-29.951-2.965-29.951-3.719V-4.319-4.528C-29.951-4.6-29.958-4.669-29.972-4.737-29.958-4.805-29.926-4.859-29.875-4.9-29.824-4.94-29.768-4.973-29.707-4.997-29.646-5.021-29.581-5.038-29.513-5.048-29.445-5.058-29.391-5.063-29.351-5.063H-29.116V-6.367H-29.319C-29.551-6.367-29.778-6.34-30.002-6.285-30.227-6.231-30.427-6.143-30.604-6.021-30.78-6.218-31.006-6.363-31.28-6.459-31.556-6.554-31.866-6.602-32.213-6.602-32.56-6.602-32.894-6.554-33.217-6.459-33.539-6.363-33.782-6.218-33.944-6.021-34.081-6.156-34.257-6.248-34.475-6.296-34.692-6.344-34.913-6.367-35.137-6.367H-35.401C-35.477-6.367-35.551-6.356-35.626-6.337-35.7-6.316-35.738-6.285-35.738-6.245ZM-38.592-7.824C-38.592-7.715-38.527-7.661-38.397-7.661H-38.194C-38.052-7.661-37.926-7.652-37.817-7.636-37.709-7.618-37.618-7.579-37.547-7.519-37.476-7.457-37.422-7.367-37.384-7.248-37.347-7.129-37.328-6.965-37.328-6.754V-2.18C-37.328-2.126-37.308-2.08-37.267-2.042-37.227-2.005-37.179-1.986-37.124-1.986H-36.238C-36.184-1.986-36.138-2.005-36.101-2.042-36.063-2.08-36.045-2.126-36.045-2.18V-5.063H-35.148V-6.367H-36.075V-6.856C-36.075-7.094-36.091-7.31-36.121-7.503-36.151-7.696-36.204-7.864-36.279-8.007-36.422-8.293-36.62-8.494-36.875-8.613-37.13-8.732-37.461-8.792-37.868-8.792-37.916-8.792-38.001-8.79-38.123-8.787-38.245-8.783-38.344-8.774-38.418-8.761-38.534-8.741-38.592-8.676-38.592-8.567ZM-40.884 1.182C-40.884 1.236-40.865 1.284-40.827 1.324-40.79 1.365-40.741 1.386-40.68 1.386H-39.763C-39.702 1.386-39.652 1.365-39.615 1.324-39.578 1.284-39.56 1.236-39.56 1.182V-6.153C-39.56-6.208-39.578-6.257-39.615-6.301-39.652-6.345-39.702-6.367-39.763-6.367H-40.68C-40.741-6.367-40.79-6.345-40.827-6.301-40.865-6.257-40.884-6.208-40.884-6.153ZM-45.927-7.487C-45.927-7.42-45.902-7.363-45.855-7.319-45.808-7.275-45.753-7.254-45.692-7.254H-44.907C-44.84-7.254-44.78-7.275-44.729-7.319-44.679-7.363-44.653-7.42-44.653-7.487V-8.303C-44.653-8.357-44.679-8.406-44.729-8.45-44.78-8.494-44.84-8.517-44.907-8.517H-45.692C-45.753-8.517-45.808-8.494-45.855-8.45-45.902-8.406-45.927-8.357-45.927-8.303ZM-48.3-5.186C-48.3-5.151-48.263-5.123-48.188-5.099-48.113-5.075-48.039-5.063-47.964-5.063H-43.634L-43.909-4.432-44.113-4.004C-44.311-3.575-44.596-3.236-44.969-2.984-45.343-2.733-45.852-2.607-46.497-2.607-46.545-2.607-46.629-2.609-46.752-2.613-46.874-2.616-46.973-2.621-47.047-2.628-47.189-2.642-47.261-2.588-47.261-2.465V-1.711C-47.261-1.616-47.193-1.552-47.058-1.518-46.725-1.457-46.392-1.426-46.059-1.426-45.686-1.426-45.339-1.465-45.02-1.543-44.7-1.621-44.403-1.754-44.128-1.94-43.854-2.127-43.597-2.375-43.359-2.685-43.121-2.993-42.9-3.379-42.697-3.841L-42.564-4.126-42.178-5.073C-42.137-5.169-42.116-5.287-42.116-5.43V-6.133C-42.116-6.289-42.204-6.367-42.381-6.367H-47.964C-48.046-6.367-48.122-6.355-48.193-6.331-48.265-6.308-48.3-6.279-48.3-6.245ZM-53.108-3.331C-52.993-3.331-52.936-3.399-52.936-3.535-52.949-3.685-52.959-3.832-52.966-3.979-52.973-4.124-52.977-4.248-52.977-4.35-52.977-4.73-52.952-5.075-52.905-5.384-52.857-5.693-52.759-5.958-52.609-6.179-52.46-6.399-52.25-6.57-51.978-6.693-51.706-6.815-51.347-6.876-50.898-6.876-50.782-6.876-50.655-6.873-50.516-6.866-50.377-6.859-50.25-6.843-50.134-6.815-50.127-6.482-50.122-6.194-50.119-5.949-50.115-5.705-50.113-5.44-50.113-5.154V1.172C-50.113 1.232-50.093 1.284-50.053 1.324-50.012 1.365-49.964 1.386-49.91 1.386H-48.993C-48.932 1.386-48.883 1.365-48.845 1.324-48.808 1.284-48.789 1.232-48.789 1.172V-5.063H-47.893V-6.367H-48.789C-48.796-6.591-48.803-6.831-48.81-7.085-48.816-7.34-48.826-7.562-48.84-7.753-48.847-7.875-48.922-7.949-49.064-7.977-49.329-8.038-49.623-8.085-49.945-8.119-50.269-8.153-50.586-8.17-50.898-8.17-52.032-8.17-52.869-7.909-53.409-7.386-53.949-6.862-54.219-6.052-54.219-4.951-54.219-4.876-54.216-4.781-54.209-4.666-54.202-4.551-54.193-4.427-54.184-4.294-54.174-4.161-54.161-4.029-54.147-3.896-54.135-3.764-54.117-3.644-54.097-3.535-54.083-3.467-54.063-3.416-54.036-3.382-54.009-3.349-53.961-3.331-53.894-3.331ZM-59.384 1.182C-59.384 1.236-59.365 1.284-59.328 1.324-59.291 1.365-59.241 1.386-59.181 1.386H-58.264C-58.202 1.386-58.153 1.365-58.116 1.324-58.079 1.284-58.06 1.236-58.06 1.182V-6.153C-58.06-6.208-58.079-6.257-58.116-6.301-58.153-6.345-58.202-6.367-58.264-6.367H-59.181C-59.241-6.367-59.291-6.345-59.328-6.301-59.365-6.257-59.384-6.208-59.384-6.153ZM-63.704-5.186C-63.704-5.151-63.666-5.123-63.592-5.099-63.517-5.075-63.442-5.063-63.367-5.063H-62.675C-62.512-5.063-62.405-5.048-62.354-5.018-62.303-4.986-62.277-4.89-62.277-4.727V1.172C-62.277 1.232-62.257 1.284-62.217 1.324-62.176 1.365-62.128 1.386-62.074 1.386H-61.146C-61.093 1.386-61.047 1.365-61.009 1.324-60.972 1.284-60.953 1.232-60.953 1.172V-4.747C-60.953-4.931-60.957-5.133-60.963-5.354-60.971-5.574-60.983-5.776-61.004-5.96-61.018-6.027-61.04-6.085-61.07-6.133-61.101-6.181-61.157-6.221-61.238-6.255-61.313-6.275-61.417-6.292-61.549-6.306-61.682-6.319-61.826-6.331-61.982-6.342-62.139-6.352-62.3-6.358-62.466-6.362-62.633-6.365-62.783-6.367-62.919-6.367H-63.367C-63.442-6.367-63.517-6.356-63.592-6.337-63.666-6.316-63.704-6.285-63.704-6.245ZM-71.966-5.186C-71.966-5.151-71.929-5.123-71.854-5.099-71.779-5.075-71.704-5.063-71.63-5.063H-71.304C-71.175-5.063-71.048-5.044-70.922-5.007-70.796-4.97-70.733-4.873-70.733-4.717V-2.648C-70.733-2.588-70.713-2.536-70.672-2.496-70.632-2.455-70.584-2.435-70.529-2.435H-69.664C-69.609-2.435-69.563-2.455-69.526-2.496-69.489-2.536-69.47-2.588-69.47-2.648V-4.921C-69.45-4.961-69.412-4.993-69.358-5.018-69.304-5.041-69.246-5.06-69.185-5.073-69.124-5.087-69.061-5.096-68.996-5.099-68.932-5.103-68.876-5.104-68.828-5.104H-68.686C-68.625-5.104-68.562-5.101-68.497-5.094-68.433-5.087-68.373-5.071-68.319-5.048-68.265-5.024-68.219-4.99-68.182-4.946-68.145-4.901-68.125-4.843-68.125-4.768V-2.282C-68.125-2.228-68.104-2.182-68.064-2.145-68.023-2.107-67.976-2.088-67.922-2.088H-67.065C-67.012-2.088-66.964-2.107-66.923-2.145-66.883-2.182-66.862-2.228-66.862-2.282V-4.921C-66.821-5.002-66.738-5.053-66.612-5.073-66.487-5.094-66.356-5.104-66.221-5.104H-66.118C-66.058-5.104-65.993-5.101-65.925-5.094-65.857-5.087-65.794-5.073-65.736-5.053-65.679-5.032-65.629-5-65.589-4.956-65.548-4.912-65.527-4.849-65.527-4.768V-1.915C-65.527-1.854-65.507-1.803-65.467-1.763-65.426-1.722-65.378-1.701-65.324-1.701H-64.438C-64.383-1.701-64.337-1.722-64.3-1.763-64.263-1.803-64.244-1.854-64.244-1.915V-4.89C-64.224-4.924-64.185-4.953-64.127-4.977-64.069-5-64.005-5.019-63.934-5.032-63.861-5.046-63.79-5.055-63.719-5.058-63.647-5.062-63.589-5.063-63.541-5.063H-63.297V-6.367H-63.429C-63.633-6.367-63.867-6.344-64.132-6.296-64.396-6.248-64.631-6.156-64.835-6.021-65.012-6.17-65.212-6.266-65.436-6.306-65.66-6.347-65.884-6.367-66.108-6.367H-66.221C-66.458-6.367-66.676-6.344-66.872-6.296-67.069-6.248-67.27-6.156-67.474-6.021-67.637-6.149-67.818-6.24-68.019-6.291-68.219-6.342-68.448-6.367-68.706-6.367H-68.839C-69.042-6.367-69.246-6.345-69.45-6.301-69.653-6.257-69.851-6.163-70.041-6.021-70.136-6.096-70.239-6.155-70.352-6.199-70.464-6.243-70.579-6.279-70.697-6.306-70.816-6.333-70.934-6.351-71.049-6.356-71.165-6.363-71.27-6.367-71.365-6.367H-71.63C-71.704-6.367-71.779-6.356-71.854-6.337-71.929-6.316-71.966-6.285-71.966-6.245ZM-74.513-5.094C-74.356-5.066-74.221-5.009-74.105-4.921-73.99-4.832-73.894-4.726-73.815-4.6-73.737-4.474-73.68-4.331-73.642-4.172-73.604-4.012-73.586-3.848-73.586-3.678V-3.586C-73.586-3.212-73.688-2.938-73.892-2.766-74.096-2.593-74.384-2.506-74.758-2.506-74.914-2.506-75.099-2.523-75.313-2.557-75.526-2.591-75.732-2.673-75.929-2.802L-75.022-5.094ZM-78.16-5.186C-78.16-5.151-78.123-5.123-78.048-5.099-77.974-5.075-77.898-5.063-77.824-5.063H-76.408L-77.172-3.102C-77.192-3.067-77.206-3.021-77.213-2.964-77.22-2.906-77.22-2.859-77.213-2.826L-77.192-2.305C-77.186-2.25-77.165-2.203-77.131-2.162-77.098-2.121-77.05-2.073-76.988-2.019-76.866-1.924-76.717-1.835-76.54-1.753-76.364-1.672-76.177-1.6-75.98-1.539-75.783-1.478-75.579-1.43-75.369-1.396-75.158-1.361-74.955-1.345-74.758-1.345-74.411-1.345-74.089-1.381-73.79-1.452-73.491-1.523-73.231-1.64-73.011-1.799-72.79-1.959-72.616-2.17-72.491-2.433-72.365-2.694-72.303-3.013-72.303-3.388V-3.612C-72.303-3.749-72.314-3.889-72.338-4.031-72.362-4.175-72.396-4.312-72.439-4.445-72.484-4.578-72.538-4.699-72.603-4.808-72.667-4.917-72.74-5.002-72.822-5.063H-71.559V-6.367H-77.824C-77.898-6.367-77.974-6.356-78.048-6.337-78.123-6.316-78.16-6.285-78.16-6.245ZM-81.767-3.963C-81.767-4.35-81.682-4.637-81.512-4.823-81.343-5.011-81.067-5.104-80.687-5.104H-79.923V-2.618C-80.12-2.598-80.327-2.588-80.544-2.588-80.932-2.588-81.231-2.696-81.445-2.913-81.66-3.131-81.767-3.437-81.767-3.83ZM-82.674-7.804C-82.674-7.687-82.612-7.63-82.49-7.63H-81.563C-81.298-7.63-81.065-7.616-80.865-7.59-80.665-7.562-80.495-7.513-80.355-7.441-80.217-7.37-80.113-7.273-80.045-7.151-79.978-7.029-79.943-6.869-79.943-6.673V-6.367H-80.687C-81.427-6.367-82.006-6.179-82.424-5.802-82.842-5.425-83.051-4.866-83.051-4.126V-3.922C-83.051-3.121-82.814-2.501-82.343-2.063-81.87-1.625-81.196-1.405-80.32-1.405-80.191-1.405-80.054-1.411-79.907-1.421-79.762-1.431-79.621-1.443-79.484-1.457-79.349-1.471-79.224-1.487-79.107-1.508-78.992-1.528-78.897-1.552-78.822-1.579-78.755-1.606-78.709-1.632-78.685-1.655-78.661-1.679-78.649-1.718-78.649-1.772V-5.063H-77.753V-6.367H-78.67V-6.714C-78.704-7.135-78.794-7.479-78.939-7.747-79.086-8.016-79.274-8.227-79.505-8.379-79.736-8.532-80.004-8.639-80.31-8.7-80.615-8.761-80.941-8.792-81.288-8.792H-81.558C-81.677-8.792-81.801-8.788-81.93-8.781-82.059-8.774-82.178-8.77-82.286-8.767-82.395-8.763-82.47-8.754-82.511-8.741-82.578-8.728-82.622-8.705-82.643-8.675-82.663-8.644-82.674-8.602-82.674-8.547ZM-88.287-5.246C-88.287-5.192-88.267-5.148-88.226-5.114-88.185-5.08-88.138-5.063-88.083-5.063H-85.424L-85.444-4.136C-85.458-3.885-85.497-3.662-85.562-3.469-85.626-3.275-85.729-3.11-85.867-2.975-86.007-2.839-86.187-2.735-86.407-2.664-86.628-2.593-86.898-2.557-87.217-2.557H-87.34-87.513C-87.573-2.557-87.635-2.559-87.696-2.562-87.757-2.565-87.808-2.57-87.849-2.577-87.978-2.577-88.042-2.526-88.042-2.426V-1.679C-88.042-1.625-88.027-1.579-87.996-1.542-87.966-1.505-87.913-1.479-87.839-1.466-87.648-1.433-87.458-1.412-87.269-1.405-87.078-1.399-86.936-1.396-86.84-1.396-86.338-1.396-85.918-1.47-85.582-1.619-85.246-1.769-84.978-1.969-84.777-2.219-84.577-2.47-84.431-2.76-84.339-3.089-84.247-3.417-84.195-3.761-84.182-4.12-84.182-4.175-84.18-4.253-84.176-4.354-84.173-4.456-84.17-4.567-84.166-4.689-84.163-4.812-84.161-4.932-84.161-5.051V-5.34C-84.161-5.436-84.163-5.567-84.166-5.736-84.17-5.906-84.178-6.052-84.191-6.174-84.191-6.229-84.21-6.274-84.247-6.312-84.285-6.349-84.341-6.367-84.416-6.367H-88.083C-88.138-6.367-88.185-6.351-88.226-6.316-88.267-6.282-88.287-6.238-88.287-6.184ZM-90.437-7.487C-90.437-7.42-90.411-7.363-90.36-7.319-90.31-7.275-90.253-7.254-90.192-7.254H-89.479C-89.411-7.254-89.355-7.275-89.311-7.319-89.267-7.363-89.244-7.42-89.244-7.487V-8.303C-89.244-8.357-89.267-8.406-89.311-8.45-89.355-8.494-89.411-8.517-89.479-8.517H-90.192C-90.253-8.517-90.31-8.494-90.36-8.45-90.411-8.406-90.437-8.357-90.437-8.303ZM-92.188-5.186C-92.188-5.151-92.151-5.123-92.077-5.099-92.002-5.075-91.927-5.063-91.853-5.063H-91.211C-91.048-5.063-90.939-5.048-90.885-5.018-90.83-4.986-90.804-4.89-90.804-4.727V-3.515C-90.804-3.094-90.811-2.639-90.823-2.149-90.823-2.095-90.805-2.049-90.768-2.012-90.73-1.975-90.681-1.956-90.62-1.956H-89.764C-89.689-1.956-89.635-1.975-89.602-2.012-89.567-2.049-89.547-2.095-89.54-2.149-89.533-2.367-89.528-2.559-89.524-2.725-89.521-2.892-89.52-3.05-89.52-3.198V-3.646-4.146C-89.52-4.581-89.521-4.946-89.524-5.241-89.528-5.537-89.54-5.776-89.561-5.96-89.574-6.027-89.596-6.085-89.627-6.133-89.657-6.181-89.713-6.221-89.795-6.255-89.869-6.275-89.97-6.292-90.095-6.306-90.221-6.319-90.36-6.331-90.513-6.342-90.666-6.352-90.823-6.358-90.986-6.362-91.149-6.365-91.299-6.367-91.435-6.367H-91.853C-91.927-6.367-92.002-6.356-92.077-6.337-92.151-6.316-92.188-6.285-92.188-6.245ZM-92.321-7.487C-92.321-7.42-92.297-7.363-92.25-7.319-92.202-7.275-92.145-7.254-92.077-7.254H-91.374C-91.306-7.254-91.246-7.275-91.195-7.319-91.145-7.363-91.119-7.42-91.119-7.487V-8.303C-91.119-8.357-91.146-8.406-91.2-8.45-91.255-8.494-91.313-8.517-91.374-8.517H-92.077C-92.145-8.517-92.202-8.494-92.25-8.45-92.297-8.406-92.321-8.357-92.321-8.303ZM-94.43 .611C-94.43 .68-94.404 .735-94.354 .779-94.303 .823-94.247 .846-94.186 .846H-93.473C-93.404 .846-93.349 .823-93.305 .779-93.261 .735-93.238 .68-93.238 .611V-.184C-93.238-.244-93.261-.297-93.305-.341-93.349-.386-93.404-.407-93.473-.407H-94.186C-94.247-.407-94.303-.386-94.354-.341-94.404-.297-94.43-.244-94.43-.184ZM-95.785-3.881C-95.785-4.269-95.71-4.543-95.561-4.706-95.412-4.869-95.181-4.951-94.868-4.951H-94.716C-94.484-4.951-94.305-4.914-94.176-4.839-94.047-4.765-93.981-4.648-93.981-4.492V-2.588C-94.022-2.581-94.099-2.575-94.211-2.572-94.323-2.568-94.41-2.567-94.471-2.567-94.885-2.567-95.208-2.664-95.438-2.857-95.669-3.051-95.785-3.345-95.785-3.738ZM-96.315 .611C-96.315 .68-96.291 .735-96.244 .779-96.196 .823-96.138 .846-96.07 .846H-95.367C-95.3 .846-95.24 .823-95.189 .779-95.138 .735-95.113 .68-95.113 .611V-.184C-95.113-.244-95.14-.297-95.194-.341-95.249-.386-95.306-.407-95.367-.407H-96.07C-96.138-.407-96.196-.386-96.244-.341-96.291-.297-96.315-.244-96.315-.184ZM-97.069-3.922C-97.069-3.121-96.836-2.497-96.371-2.053-95.906-1.607-95.225-1.386-94.328-1.386-94.063-1.386-93.793-1.399-93.519-1.426-93.243-1.453-93.027-1.49-92.871-1.538-92.797-1.559-92.749-1.582-92.729-1.609-92.708-1.637-92.698-1.678-92.698-1.731V-4.523C-92.698-4.747-92.647-4.894-92.545-4.961-92.443-5.029-92.28-5.063-92.057-5.063H-91.781V-6.367H-92.25C-92.604-6.367-92.892-6.323-93.116-6.234-93.34-6.146-93.51-6-93.625-5.797-93.762-5.933-93.942-6.036-94.17-6.107-94.398-6.179-94.631-6.214-94.868-6.214H-95C-95.286-6.214-95.554-6.175-95.806-6.097-96.057-6.02-96.276-5.896-96.462-5.726-96.649-5.556-96.797-5.338-96.906-5.073-97.015-4.809-97.069-4.492-97.069-4.126Z" fill="#0f4f52"></path>
    </g>
  </g>
</svg>
