<svg version="1.2" xmlns="http://www.w3.org/2000/svg" viewBox="0 0 301 133" width="301" height="133">
	<title>logo-white-svg</title>
	<style>
		.s0 { fill: #ffffff } 
	</style>
	<path id="Layer" fill-rule="evenodd" class="s0" d="m23.4 35.7h5.8q0.4 0 0.4 0.5v14.6q0 1.4 0.6 1.9 0.5 0.6 1.7 0.6h1.5q0.1 0 0.2 0 0.1 0 0.2 0h6.5q-1.7-1.1-2.7-2.9-1-1.8-1-4 0-2 0.7-3.5 0.8-1.6 2.2-2.6 1.3-1 3.3-1.6 1.9-0.5 4.4-0.5 2.4 0 4.3 0.5 2 0.6 3.4 1.6 1.4 1 2.1 2.6 0.8 1.5 0.8 3.5 0 2.2-1.1 4-1.1 1.8-2.7 3 0.4-0.1 0.8-0.1h5.7q0 0 0 0 0.1 0 0.1 0h3.7q-0.8-1.6-0.8-4.3 0-3.1 0.9-5.2 0.9-2.1 2.3-3.3 1.5-1.3 3.4-1.8 1.9-0.5 3.9-0.5 2.1 0 4 0.5 2 0.5 3.4 1.8 1.5 1.2 2.3 3.3 0.9 2.1 0.9 5.2 0 2.9-0.8 4.8-0.9 2-2.2 3.1-1.5 1.2-3.4 1.7-1.9 0.4-4.2 0.4h-13.4q0 0-0.1 0h-7.1q-1.7 0-3.3-0.1-1.5-0.1-2.9-1-1.6 0.9-3.3 1-1.8 0.1-3.2 0.1h-6.9q-0.1 0-0.2 0-0.1 0-0.2 0h-5q-2.3 0-3.6-0.7-1.3-0.7-1.7-2.8-1.1 0.9-2.5 1.3-1.3 0.4-2.9 0.4-1.8 0-3.5-0.5-1.7-0.5-3-1.6-1.3-1.1-2-2.9-0.8-1.7-0.8-4.3 0-2.8 0.9-4.7 0.8-1.9 2.2-3 1.3-1.1 3-1.6 1.8-0.4 3.6-0.4h4.8v-2q0-0.5 0.5-0.5zm-10.7-8.6q0-0.5 0.5-0.5h4.8q0.4 0 0.4 0.5v4.7q0 0.5-0.4 0.5h-4.8q-0.5 0-0.5-0.5zm10.2 20.1v-3.3h-3.8q-1.8 0-3 0.9-1.1 0.8-1.1 3.1 0 2 1.1 2.8 1.2 0.8 2.8 0.8 1.8 0 2.9-1.1 1.1-1 1.1-3.2zm-2.8-20.1q0-0.5 0.4-0.5h4.8q0.5 0 0.5 0.5v4.7q0 0.5-0.5 0.5h-4.8q-0.4 0-0.4-0.5zm20.6 1.9q0-0.5 0.5-0.5h4.8q0.5 0 0.5 0.5v4.7q0 0.5-0.5 0.5h-4.8q-0.5 0-0.5-0.5zm2.6 17.8q0 2.2 1.1 3.5 1.2 1.4 2.8 2.1 1.5-0.7 2.7-2.1 1.1-1.3 1.1-3.5 0-2.1-1.2-3-1.2-1-2.6-1-1.6 0-2.7 1-1.2 0.9-1.2 3zm4.8-17.8q0-0.5 0.4-0.5h4.9q0.4 0 0.4 0.5v4.6q0 0.5-0.4 0.5h-4.9q-0.4 0-0.4-0.5zm25.9 14.9q-3.9 0-3.9 4.7 0 2.8 1 3.8 1 1.1 2.9 1.1 2 0 2.9-1.1 1-1 1-3.6 0-4.9-3.9-4.9zm-3-9.7q-0.4 0-0.4-0.5v-4.7q0-0.4 0.4-0.4h5.9q0.5 0 0.5 0.4v4.7q0 0.5-0.5 0.5zm19.2 24.8q-0.5 0-0.5-0.4v-31.5q0-0.5 0.5-0.5h5.7q0.5 0 0.5 0.5v31.5q0 0.4-0.5 0.4zm15.8 9.8q-0.5 0-0.5-0.5v-4.8q0-0.4 0.5-0.4h5.5q1 0 1.8-0.2 0.8-0.2 1.3-0.6 0.5-0.4 0.8-1.2 0.3-0.8 0.3-2.1h-4.6q-4.6 0-7.1-2.2-2.6-2.2-2.6-7.7 0-3 0.9-5.1 0.9-2.1 2.4-3.4 1.4-1.3 3.3-1.8 1.9-0.6 3.9-0.6 2.1 0 4 0.5 1.9 0.5 3.3 1.7 1.4 1.3 2.3 3.3 0.8 2.1 0.8 5.1v4.5c0 0 3.2 0 3.2 0h1.4q1.1 0 2-0.9 0.9-0.9 1-3.4v-1q0-2.8 0.9-4.7 0.8-1.9 2.3-3 1.5-1.2 3.3-1.7 1.9-0.4 4-0.4 2.1 0 4 0.5 1.9 0.5 3.3 1.8 1.5 1.2 2.3 3.3 0.9 2.1 0.9 5.2 0 2.9-0.8 4.9-0.8 2-2.2 3.2-1.4 1.2-3.3 1.8-2 0.5-4.2 0.5-2.6 0-4.7-0.7-2.1-0.6-3.5-2.2-0.7 0.9-1.6 1.4-0.9 0.5-1.8 0.8-0.9 0.3-1.7 0.3-0.9 0-1.6 0 0 0 0 0h-3.2v0.9q0 4.5-2.2 6.7-2.3 2.2-7.1 2.2zm5.9-24.9q-1.9 0-2.9 1.4-1.1 1.3-1.1 3.6 0 2.6 1.1 3.5 1.2 0.9 3 0.9h3.6v-4.6q0-4.8-3.7-4.8zm25.5 8.6q1 1.1 2.9 1.1 2 0 3-1.1 0.9-1 0.9-3.7 0-4.9-3.9-4.9-3.9 0-3.9 4.9 0 2.7 1 3.7z"/>
	<path id="Layer" fill-rule="evenodd" class="s0" d="m29.1 97.1q-0.2-0.5-0.3-1-0.1-0.4-0.1-1-0.1-0.6-0.1-1.3-0.1-0.7-0.1-1.8 0-1 0.1-1.7 0-0.8 0.1-1.3 0-0.6 0.1-1.1 0.1-0.4 0.3-0.9 0.7-2.3 2.5-3.4 1.8-1.1 4.2-1.1 2.4 0 4.2 1.1 1.8 1.1 2.5 3.4 0.2 0.5 0.3 0.9 0.1 0.5 0.1 1.1 0.1 0.5 0.1 1.3 0 0.7 0 1.7 0 1.1 0 1.8 0 0.7-0.1 1.3 0 0.6-0.1 1-0.1 0.5-0.3 1-0.7 2.2-2.5 3.4-1.8 1.1-4.2 1.1-2.4 0-4.2-1.1-1.8-1.2-2.5-3.4zm9.6-1.1q0.1-0.2 0.1-0.6 0.1-0.3 0.1-0.7 0.1-0.5 0.1-1.1 0-0.7 0-1.6 0-0.9 0-1.5 0-0.7-0.1-1.1 0-0.5-0.1-0.8 0-0.3-0.1-0.5-0.3-1-1-1.5-0.8-0.6-1.9-0.6-1.1 0-1.9 0.6-0.7 0.5-1 1.5-0.1 0.2-0.1 0.5-0.1 0.3-0.2 0.8 0 0.4 0 1.1v3.1q0 0.6 0 1.1 0.1 0.4 0.2 0.7 0 0.4 0.1 0.6 0.3 0.9 1 1.5 0.8 0.5 1.9 0.5 1.1 0 1.9-0.5 0.7-0.6 1-1.5zm-26.9-13.2q0.3 0 0.4 0.3l4.7 10.5h0.1l4.6-10.5q0.1-0.3 0.5-0.3h3.1q0.3 0 0.3 0.3v17.9q0 0.3-0.3 0.3h-3q-0.3 0-0.3-0.3v-10.4h-0.1l-3.4 7.8q-0.2 0.3-0.6 0.3h-1.8q-0.4 0-0.5-0.3l-3.5-7.8h-0.1v10.4q0 0.3-0.2 0.3h-3.1q-0.3 0-0.3-0.3v-17.9q0-0.3 0.3-0.3zm47.8 18.5q-0.3 0-0.3-0.3l-3.2-11.5h-0.1l-3.2 11.5q-0.1 0.3-0.4 0.3h-2.7q-0.2 0-0.3-0.3l-4.8-17.9q-0.1-0.3 0.2-0.3h3.5q0.3 0 0.3 0.3l2.7 11.6h0.1l3.1-11.6q0.1-0.3 0.4-0.3h2.3q0.3 0 0.3 0.3l3.3 11.6h0.1l2.5-11.6q0-0.3 0.3-0.3h3.5q0.3 0 0.2 0.3l-4.7 17.9q-0.1 0.3-0.4 0.3zm17.8-18.5q0.3 0 0.4 0.3l6.2 17.9q0.1 0.3-0.2 0.3h-3.5q-0.3 0-0.4-0.3l-1-3.2h-6.5l-1 3.2q-0.1 0.3-0.4 0.3h-3.5q-0.3 0-0.2-0.3l6.3-17.9q0.1-0.3 0.4-0.3zm-1.8 5.1l-2.1 6.5h4.2l-2-6.5zm10.5-4.8q0-0.3 0.3-0.3h11.8q0.3 0 0.3 0.3v2.9q0 0.3-0.3 0.3h-7.9q-0.2 0-0.2 0.1v3.9q0 0.1 0.2 0.1h6.6q0.3 0 0.3 0.3v2.9q0 0.3-0.3 0.3h-6.6q-0.2 0-0.2 0.1v7q0 0.3-0.3 0.3h-3.4q-0.3 0-0.3-0.3zm22.3-0.3q0.3 0 0.4 0.3l6.2 17.9q0.1 0.3-0.2 0.3h-3.5q-0.3 0-0.4-0.3l-1-3.2h-6.5l-1 3.2q-0.1 0.3-0.4 0.3h-3.5q-0.3 0-0.2-0.3l6.3-17.9q0.1-0.3 0.4-0.3zm-1.8 5.1l-2.1 6.5h4.3l-2.1-6.5zm34-4.8q0-0.3 0.3-0.3h3.4q0.3 0 0.4 0.3l6.2 17.9q0.1 0.3-0.2 0.3h-3.5q-0.3 0-0.3-0.3l-1.1-3.2h-6.5l-1 3.2q-0.1 0.3-0.4 0.3h-3.5q-0.3 0-0.2-0.3zm4.2 11.3l-2.1-6.4h-0.1l-2.1 6.4zm-15.2 8.2l-1.9-1.8q-1.7 0.8-3.7 0.8-2.4 0-4.2-1.1-1.9-1.1-2.6-3.4-0.1-0.5-0.2-0.9-0.1-0.5-0.2-1.1 0-0.5-0.1-1.3 0-0.7 0-1.7 0-1.1 0-1.8 0.1-0.7 0.1-1.3 0.1-0.6 0.2-1 0.1-0.5 0.2-1 0.7-2.2 2.6-3.3 1.8-1.2 4.2-1.2 2.4 0 4.2 1.2 1.8 1.1 2.5 3.3 0.2 0.5 0.3 1 0.1 0.4 0.1 1 0.1 0.6 0.1 1.3 0 0.7 0 1.8 0 1 0 1.7 0 0.8-0.1 1.3 0 0.6-0.1 1.1-0.1 0.4-0.3 0.9-0.1 0.3-0.2 0.6-0.1 0.3-0.3 0.6l2 1.9q0.1 0.1 0 0.3l-2.2 2.1q-0.1 0.1-0.2 0.1-0.1 0-0.2-0.1zm-5.8-5.8q-0.2-0.2 0-0.3l2.2-2.1q0.2-0.2 0.4 0l0.7 0.7q0-0.4 0.1-1.2 0-0.7 0-1.8v-1.6q0-0.6-0.1-1.1 0-0.4-0.1-0.8 0-0.3-0.1-0.5-0.3-1-1-1.5-0.8-0.5-1.9-0.5-1.2 0-1.9 0.5-0.8 0.5-1 1.5-0.1 0.2-0.2 0.5 0 0.4-0.1 0.8 0 0.5 0 1.1-0.1 0.7-0.1 1.6 0 0.9 0.1 1.5 0 0.7 0 1.1 0.1 0.5 0.1 0.8 0.1 0.3 0.2 0.6 0.2 0.9 1 1.5 0.7 0.5 1.9 0.5 0.5 0 1-0.1z"/>
	<path id="Layer" class="s0" d="m291.5 76.3c-5.4 28.2-31.2 49.3-61.5 47.1-28.7-2-51.9-25.3-53.9-54-0.3-5.5 0-10.9 1.1-16 0.2-0.8 0.4-1.6 0.6-2.4q0.2-1.1 0.6-2.3 0.3-1 0.7-2.1 0-0.2 0.1-0.3c0.2-0.6 0.4-1.3 0.7-1.9 0-0.1 0-0.2 0.1-0.3q0.3-0.8 0.6-1.5c0.2-0.4 0.4-0.9 0.6-1.3 0.4-0.9 0.8-1.8 1.3-2.7q1-2 2.2-4c2.4-3.8 5.2-7.3 8.4-10.5q1.2-1.3 2.5-2.4 1.4-1.2 2.7-2.3c0.8-0.6 1.5-1.1 2.3-1.6q0.6-0.6 1.4-1 0.9-0.6 1.8-1.2c0.5-0.3 1-0.6 1.5-0.9q0.1 0 0.3-0.2 1.3-0.7 2.6-1.3c5.3-2.7 10.9-4.5 16.7-5.4h0.1c1-0.2 1.9-0.4 2.9-0.4q2.1-0.3 4.2-0.4 1.1 0 2.2 0c4.9 0 9.9 0.6 14.8 1.9 5.3 1.4 8 7.4 5.6 12.4-1.8 3.8-6 5.9-10.1 4.8-4.4-1.1-8.9-1.5-13.3-1.2-0.8 0.1-1.6 0.2-2.3 0.3-3.9 0.4-7.6 1.5-11.1 3.1-1.4 0.6-2.8 1.3-4.1 2.1-0.5 0.2-0.9 0.5-1.3 0.8 0 0 0 0-0.1 0q-0.6 0.4-1.2 0.9-1.1 0.7-2.1 1.5-1.1 0.8-2.1 1.8-0.7 0.6-1.4 1.3c-0.4 0.5-0.8 0.9-1.2 1.4-0.9 0.8-1.5 1.7-2.3 2.6q-0.2 0.2-0.3 0.5c-0.4 0.5-0.8 0.9-1.1 1.5-0.4 0.5-0.7 1-1 1.6-0.4 0.5-0.7 1.1-1 1.7q-0.5 0.8-0.9 1.7c-0.3 0.6-0.5 1.2-0.8 1.8q-0.4 0.9-0.7 1.8-0.1 0-0.1 0.1-0.1 0.4-0.2 0.8c-0.1 0.3-0.2 0.6-0.3 0.9q-0.3 1-0.6 2c0 0.1 0 0.1-0.1 0.2-0.1 0.5-0.2 1-0.3 1.4q-0.2 0.8-0.3 1.5-0.1 0.6-0.2 1.3 0 0 0 0c-0.5 3.4-0.6 6.9-0.1 10.5 2 18.5 16.9 33.4 35.4 35.5 21.8 2.5 40.7-12.4 44.6-32.7 0.8-4.1 4.5-7 8.6-7 5.6 0 9.9 5 8.8 10.5z"/>
	<path id="Layer" class="s0" d="m209.9 66.1q9 9.1 18.1 18.2c3.4 3.4 9.2 3.4 12.6 0q21.9-22 43.8-43.9 3.1-3.1 6.3-6.2c3.3-3.4 3.5-9.4 0-12.6-3.6-3.3-9.1-3.6-12.6 0q-21.9 21.8-43.8 43.8-3.2 3.1-6.3 6.3 6.3 0 12.6 0-9.1-9.1-18.2-18.2c-3.3-3.2-9.3-3.5-12.5 0-3.3 3.6-3.6 9.1 0 12.6z"/>
</svg>