<svg xmlns="http://www.w3.org/2000/svg" width="511.714" height="512" viewBox="0 0 511.714 512"><g id="Group_2368" data-name="Group 2368" transform="translate(-0.036)"><path id="Path_7574" data-name="Path 7574" d="M-6.885,178.733c-1.718,44.508-8.515,87.988-25.6,129.437-23.481,56.96-62.4,100.948-113.627,134.387-11.992,7.829-24.714,14.548-37.139,21.707-6.792,3.913-13.46,3.561-20.455-.07-35.99-18.68-68.756-41.624-96.473-71.475-35.375-38.1-57.919-82.86-69.572-133.3-7.593-32.868-10.34-66.246-10.122-99.907.067-10.189,7.068-18.07,17.49-18.21,57.642-.781,106.872-24.428,153.379-55.7.83-.56,1.646-1.142,2.468-1.713,10.285-7.13,16.1-7.218,26.454.08a357.9,357.9,0,0,0,67.992,38.049c27.471,11.506,55.779,19.134,85.848,19.156,12.205.009,19.369,7.763,19.359,20.03Q-6.89,169.964-6.885,178.733ZM-193.748,354.365v-.016c12.362,0,24.727.177,37.085-.044a29.632,29.632,0,0,0,29.332-29.012c.293-22.047.249-44.1,0-66.15-.11-9.755-4.327-18.036-12.609-23.247-4.295-2.7-5.388-5.558-5.475-10.3-.591-32.046-27.783-53.246-59.061-46.319-22.974,5.089-36.871,23.031-36.935,48.115-.008,3.576-.951,5.526-4.07,7.469-9.334,5.812-14,14.566-14.045,25.571q-.129,31.572,0,63.144c.079,17.72,13,30.631,30.7,30.769C-217.135,354.438-205.441,354.365-193.748,354.365Z" transform="translate(449.411 -10.013)" fill="#e11e26"></path><path id="Path_7575" data-name="Path 7575" d="M-339.933,438.671c-22.612,15.954-45.346,7.319-56.241-5.7a40.642,40.642,0,0,1,.761-52.823,40.461,40.461,0,0,1,51.95-7.07c18.423,11.782,22.96,32.394,12.11,56.57,1.572,1.193,3.217,2.519,4.938,3.735,49.424,34.923,104.432,50.738,164.529,44.062C-67.893,467.007-.684,417.66,38.8,331.936c22.128-48.044,25.648-98.692,14.683-150.365-.208-.978-.453-1.95-.621-2.934-.656-3.821.54-6.825,4.5-7.676,4.018-.862,6.416,1.544,7.2,5.236,1.556,7.341,3.265,14.688,4.165,22.123C79.114,284.11,54.686,358.449-7.244,418.865c-52.17,50.893-115.929,74.258-188.8,71.654-50.927-1.821-96.988-18.348-138.344-48.066-1.491-1.071-2.964-2.168-4.457-3.236A8.989,8.989,0,0,0-339.933,438.671Z" transform="translate(440.706 21.285)" fill="#e11e26"></path><path id="Path_7576" data-name="Path 7576" d="M-48.253,75.628A226.755,226.755,0,0,0-93.27,53.951C-230.828,5.349-377.69,84.442-412.933,226.212c-8.126,32.686-8.772,65.74-3.327,98.946,1,6.1-.285,8.843-4.189,9.61-4.2.826-6.664-1.516-7.644-7.657-10.434-65.363,1.1-126.546,37.224-182.094,42.095-64.725,102.132-103.17,178.4-114.7C-153.334,21.38-97.53,32.836-45.808,63.109c3.412,2,5.37,2.007,8.563-.566C-23.563,51.51-3.819,52.6,9.076,64.665A35.784,35.784,0,0,1,14.19,111.24,35.922,35.922,0,0,1-30.673,123.4,35.823,35.823,0,0,1-50,81.129C-49.5,79.381-48.9,77.662-48.253,75.628Z" transform="translate(431.811 -27.363)" fill="#e11e26"></path><path id="Path_7577" data-name="Path 7577" d="M-267.3,201.509c-1.895-22.6,13.684-39.79,35.759-39.794s37.582,17.063,35.8,39.794Z" transform="translate(487.548 18.209)" fill="#e11e26"></path><path id="Path_7578" data-name="Path 7578" d="M-236.98,275.809c-15.126,0-16.611-1.778-13.758-16.642.846-4.413,1.808-8.805,2.733-13.2.958-4.555,1.717-8.808-.787-13.472-2.562-4.774-.266-10.906,4.04-14.262a13.073,13.073,0,0,1,14.978-.633c4.488,2.89,7.737,8.866,5.428,13.318-3.852,7.428-1.172,14.218.084,21.27.73,4.1,1.742,8.142,2.432,12.244,1.31,7.786-1.725,11.3-9.649,11.378C-233.312,275.824-235.147,275.809-236.98,275.809Z" transform="translate(492.817 36.466)" fill="#e11e26"></path></g></svg>